<?xml version="1.0" encoding="utf-8" standalone="no"?>
<!DOCTYPE svg PUBLIC "-//W3C//DTD SVG 1.1//EN"
  "http://www.w3.org/Graphics/SVG/1.1/DTD/svg11.dtd">
<svg xmlns:xlink="http://www.w3.org/1999/xlink" width="982.037812pt" height="355.279671pt" viewBox="0 0 982.037812 355.279671" xmlns="http://www.w3.org/2000/svg" version="1.1">
 <metadata>
  <rdf:RDF xmlns:dc="http://purl.org/dc/elements/1.1/" xmlns:cc="http://creativecommons.org/ns#" xmlns:rdf="http://www.w3.org/1999/02/22-rdf-syntax-ns#">
   <cc:Work>
    <dc:type rdf:resource="http://purl.org/dc/dcmitype/StillImage"/>
    <dc:date>2026-05-31T15:53:04.193259</dc:date>
    <dc:format>image/svg+xml</dc:format>
    <dc:creator>
     <cc:Agent>
      <dc:title>Matplotlib v3.10.9, https://matplotlib.org/</dc:title>
     </cc:Agent>
    </dc:creator>
   </cc:Work>
  </rdf:RDF>
 </metadata>
 <defs>
  <style type="text/css">*{stroke-linejoin: round; stroke-linecap: butt}</style>
 </defs>
 <g id="figure_1">
  <g id="patch_1">
   <path d="M 0 355.279671 
L 982.037812 355.279671 
L 982.037812 0 
L 0 0 
z
" style="fill: #ffffff"/>
  </g>
  <g id="axes_1">
   <g id="patch_2">
    <path d="M 57.557813 297.196875 
L 974.837812 297.196875 
L 974.837812 34.396875 
L 57.557813 34.396875 
z
" style="fill: #ffffff"/>
   </g>
   <g id="matplotlib.axis_1">
    <g id="xtick_1">
     <g id="line2d_1">
      <defs>
       <path id="mfb732aa814" d="M 0 0 
L 0 3.5 
" style="stroke: #000000; stroke-width: 0.8"/>
      </defs>
      <g>
       <use xlink:href="#mfb732aa814" x="66.103899" y="297.196875" style="stroke: #000000; stroke-width: 0.8"/>
      </g>
     </g>
     <g id="text_1">
      <!-- s01 -->
      <g transform="translate(49.121404 325.862185) rotate(-45) scale(0.12 -0.12)">
       <defs>
        <path id="DejaVuSans-73" d="M 2834 3397 
L 2834 2853 
Q 2591 2978 2328 3040 
Q 2066 3103 1784 3103 
Q 1356 3103 1142 2972 
Q 928 2841 928 2578 
Q 928 2378 1081 2264 
Q 1234 2150 1697 2047 
L 1894 2003 
Q 2506 1872 2764 1633 
Q 3022 1394 3022 966 
Q 3022 478 2636 193 
Q 2250 -91 1575 -91 
Q 1294 -91 989 -36 
Q 684 19 347 128 
L 347 722 
Q 666 556 975 473 
Q 1284 391 1588 391 
Q 1994 391 2212 530 
Q 2431 669 2431 922 
Q 2431 1156 2273 1281 
Q 2116 1406 1581 1522 
L 1381 1569 
Q 847 1681 609 1914 
Q 372 2147 372 2553 
Q 372 3047 722 3315 
Q 1072 3584 1716 3584 
Q 2034 3584 2315 3537 
Q 2597 3491 2834 3397 
z
" transform="scale(0.015625)"/>
        <path id="DejaVuSans-30" d="M 2034 4250 
Q 1547 4250 1301 3770 
Q 1056 3291 1056 2328 
Q 1056 1369 1301 889 
Q 1547 409 2034 409 
Q 2525 409 2770 889 
Q 3016 1369 3016 2328 
Q 3016 3291 2770 3770 
Q 2525 4250 2034 4250 
z
M 2034 4750 
Q 2819 4750 3233 4129 
Q 3647 3509 3647 2328 
Q 3647 1150 3233 529 
Q 2819 -91 2034 -91 
Q 1250 -91 836 529 
Q 422 1150 422 2328 
Q 422 3509 836 4129 
Q 1250 4750 2034 4750 
z
" transform="scale(0.015625)"/>
        <path id="DejaVuSans-31" d="M 794 531 
L 1825 531 
L 1825 4091 
L 703 3866 
L 703 4441 
L 1819 4666 
L 2450 4666 
L 2450 531 
L 3481 531 
L 3481 0 
L 794 0 
L 794 531 
z
" transform="scale(0.015625)"/>
       </defs>
       <use xlink:href="#DejaVuSans-73"/>
       <use xlink:href="#DejaVuSans-30" transform="translate(52.099609 0)"/>
       <use xlink:href="#DejaVuSans-31" transform="translate(115.722656 0)"/>
      </g>
     </g>
    </g>
    <g id="xtick_2">
     <g id="line2d_2">
      <g>
       <use xlink:href="#mfb732aa814" x="94.590856" y="297.196875" style="stroke: #000000; stroke-width: 0.8"/>
      </g>
     </g>
     <g id="text_2">
      <!-- s02 -->
      <g transform="translate(77.608361 325.862185) rotate(-45) scale(0.12 -0.12)">
       <defs>
        <path id="DejaVuSans-32" d="M 1228 531 
L 3431 531 
L 3431 0 
L 469 0 
L 469 531 
Q 828 903 1448 1529 
Q 2069 2156 2228 2338 
Q 2531 2678 2651 2914 
Q 2772 3150 2772 3378 
Q 2772 3750 2511 3984 
Q 2250 4219 1831 4219 
Q 1534 4219 1204 4116 
Q 875 4013 500 3803 
L 500 4441 
Q 881 4594 1212 4672 
Q 1544 4750 1819 4750 
Q 2544 4750 2975 4387 
Q 3406 4025 3406 3419 
Q 3406 3131 3298 2873 
Q 3191 2616 2906 2266 
Q 2828 2175 2409 1742 
Q 1991 1309 1228 531 
z
" transform="scale(0.015625)"/>
       </defs>
       <use xlink:href="#DejaVuSans-73"/>
       <use xlink:href="#DejaVuSans-30" transform="translate(52.099609 0)"/>
       <use xlink:href="#DejaVuSans-32" transform="translate(115.722656 0)"/>
      </g>
     </g>
    </g>
    <g id="xtick_3">
     <g id="line2d_3">
      <g>
       <use xlink:href="#mfb732aa814" x="123.077813" y="297.196875" style="stroke: #000000; stroke-width: 0.8"/>
      </g>
     </g>
     <g id="text_3">
      <!-- s03 -->
      <g transform="translate(106.095317 325.862185) rotate(-45) scale(0.12 -0.12)">
       <defs>
        <path id="DejaVuSans-33" d="M 2597 2516 
Q 3050 2419 3304 2112 
Q 3559 1806 3559 1356 
Q 3559 666 3084 287 
Q 2609 -91 1734 -91 
Q 1441 -91 1130 -33 
Q 819 25 488 141 
L 488 750 
Q 750 597 1062 519 
Q 1375 441 1716 441 
Q 2309 441 2620 675 
Q 2931 909 2931 1356 
Q 2931 1769 2642 2001 
Q 2353 2234 1838 2234 
L 1294 2234 
L 1294 2753 
L 1863 2753 
Q 2328 2753 2575 2939 
Q 2822 3125 2822 3475 
Q 2822 3834 2567 4026 
Q 2313 4219 1838 4219 
Q 1578 4219 1281 4162 
Q 984 4106 628 3988 
L 628 4550 
Q 988 4650 1302 4700 
Q 1616 4750 1894 4750 
Q 2613 4750 3031 4423 
Q 3450 4097 3450 3541 
Q 3450 3153 3228 2886 
Q 3006 2619 2597 2516 
z
" transform="scale(0.015625)"/>
       </defs>
       <use xlink:href="#DejaVuSans-73"/>
       <use xlink:href="#DejaVuSans-30" transform="translate(52.099609 0)"/>
       <use xlink:href="#DejaVuSans-33" transform="translate(115.722656 0)"/>
      </g>
     </g>
    </g>
    <g id="xtick_4">
     <g id="line2d_4">
      <g>
       <use xlink:href="#mfb732aa814" x="151.564769" y="297.196875" style="stroke: #000000; stroke-width: 0.8"/>
      </g>
     </g>
     <g id="text_4">
      <!-- s04 -->
      <g transform="translate(134.582274 325.862185) rotate(-45) scale(0.12 -0.12)">
       <defs>
        <path id="DejaVuSans-34" d="M 2419 4116 
L 825 1625 
L 2419 1625 
L 2419 4116 
z
M 2253 4666 
L 3047 4666 
L 3047 1625 
L 3713 1625 
L 3713 1100 
L 3047 1100 
L 3047 0 
L 2419 0 
L 2419 1100 
L 313 1100 
L 313 1709 
L 2253 4666 
z
" transform="scale(0.015625)"/>
       </defs>
       <use xlink:href="#DejaVuSans-73"/>
       <use xlink:href="#DejaVuSans-30" transform="translate(52.099609 0)"/>
       <use xlink:href="#DejaVuSans-34" transform="translate(115.722656 0)"/>
      </g>
     </g>
    </g>
    <g id="xtick_5">
     <g id="line2d_5">
      <g>
       <use xlink:href="#mfb732aa814" x="180.051726" y="297.196875" style="stroke: #000000; stroke-width: 0.8"/>
      </g>
     </g>
     <g id="text_5">
      <!-- s05 -->
      <g transform="translate(163.06923 325.862185) rotate(-45) scale(0.12 -0.12)">
       <defs>
        <path id="DejaVuSans-35" d="M 691 4666 
L 3169 4666 
L 3169 4134 
L 1269 4134 
L 1269 2991 
Q 1406 3038 1543 3061 
Q 1681 3084 1819 3084 
Q 2600 3084 3056 2656 
Q 3513 2228 3513 1497 
Q 3513 744 3044 326 
Q 2575 -91 1722 -91 
Q 1428 -91 1123 -41 
Q 819 9 494 109 
L 494 744 
Q 775 591 1075 516 
Q 1375 441 1709 441 
Q 2250 441 2565 725 
Q 2881 1009 2881 1497 
Q 2881 1984 2565 2268 
Q 2250 2553 1709 2553 
Q 1456 2553 1204 2497 
Q 953 2441 691 2322 
L 691 4666 
z
" transform="scale(0.015625)"/>
       </defs>
       <use xlink:href="#DejaVuSans-73"/>
       <use xlink:href="#DejaVuSans-30" transform="translate(52.099609 0)"/>
       <use xlink:href="#DejaVuSans-35" transform="translate(115.722656 0)"/>
      </g>
     </g>
    </g>
    <g id="xtick_6">
     <g id="line2d_6">
      <g>
       <use xlink:href="#mfb732aa814" x="208.538682" y="297.196875" style="stroke: #000000; stroke-width: 0.8"/>
      </g>
     </g>
     <g id="text_6">
      <!-- s06 -->
      <g transform="translate(191.556187 325.862185) rotate(-45) scale(0.12 -0.12)">
       <defs>
        <path id="DejaVuSans-36" d="M 2113 2584 
Q 1688 2584 1439 2293 
Q 1191 2003 1191 1497 
Q 1191 994 1439 701 
Q 1688 409 2113 409 
Q 2538 409 2786 701 
Q 3034 994 3034 1497 
Q 3034 2003 2786 2293 
Q 2538 2584 2113 2584 
z
M 3366 4563 
L 3366 3988 
Q 3128 4100 2886 4159 
Q 2644 4219 2406 4219 
Q 1781 4219 1451 3797 
Q 1122 3375 1075 2522 
Q 1259 2794 1537 2939 
Q 1816 3084 2150 3084 
Q 2853 3084 3261 2657 
Q 3669 2231 3669 1497 
Q 3669 778 3244 343 
Q 2819 -91 2113 -91 
Q 1303 -91 875 529 
Q 447 1150 447 2328 
Q 447 3434 972 4092 
Q 1497 4750 2381 4750 
Q 2619 4750 2861 4703 
Q 3103 4656 3366 4563 
z
" transform="scale(0.015625)"/>
       </defs>
       <use xlink:href="#DejaVuSans-73"/>
       <use xlink:href="#DejaVuSans-30" transform="translate(52.099609 0)"/>
       <use xlink:href="#DejaVuSans-36" transform="translate(115.722656 0)"/>
      </g>
     </g>
    </g>
    <g id="xtick_7">
     <g id="line2d_7">
      <g>
       <use xlink:href="#mfb732aa814" x="237.025639" y="297.196875" style="stroke: #000000; stroke-width: 0.8"/>
      </g>
     </g>
     <g id="text_7">
      <!-- s07 -->
      <g transform="translate(220.043143 325.862185) rotate(-45) scale(0.12 -0.12)">
       <defs>
        <path id="DejaVuSans-37" d="M 525 4666 
L 3525 4666 
L 3525 4397 
L 1831 0 
L 1172 0 
L 2766 4134 
L 525 4134 
L 525 4666 
z
" transform="scale(0.015625)"/>
       </defs>
       <use xlink:href="#DejaVuSans-73"/>
       <use xlink:href="#DejaVuSans-30" transform="translate(52.099609 0)"/>
       <use xlink:href="#DejaVuSans-37" transform="translate(115.722656 0)"/>
      </g>
     </g>
    </g>
    <g id="xtick_8">
     <g id="line2d_8">
      <g>
       <use xlink:href="#mfb732aa814" x="265.512595" y="297.196875" style="stroke: #000000; stroke-width: 0.8"/>
      </g>
     </g>
     <g id="text_8">
      <!-- s08 -->
      <g transform="translate(248.5301 325.862185) rotate(-45) scale(0.12 -0.12)">
       <defs>
        <path id="DejaVuSans-38" d="M 2034 2216 
Q 1584 2216 1326 1975 
Q 1069 1734 1069 1313 
Q 1069 891 1326 650 
Q 1584 409 2034 409 
Q 2484 409 2743 651 
Q 3003 894 3003 1313 
Q 3003 1734 2745 1975 
Q 2488 2216 2034 2216 
z
M 1403 2484 
Q 997 2584 770 2862 
Q 544 3141 544 3541 
Q 544 4100 942 4425 
Q 1341 4750 2034 4750 
Q 2731 4750 3128 4425 
Q 3525 4100 3525 3541 
Q 3525 3141 3298 2862 
Q 3072 2584 2669 2484 
Q 3125 2378 3379 2068 
Q 3634 1759 3634 1313 
Q 3634 634 3220 271 
Q 2806 -91 2034 -91 
Q 1263 -91 848 271 
Q 434 634 434 1313 
Q 434 1759 690 2068 
Q 947 2378 1403 2484 
z
M 1172 3481 
Q 1172 3119 1398 2916 
Q 1625 2713 2034 2713 
Q 2441 2713 2670 2916 
Q 2900 3119 2900 3481 
Q 2900 3844 2670 4047 
Q 2441 4250 2034 4250 
Q 1625 4250 1398 4047 
Q 1172 3844 1172 3481 
z
" transform="scale(0.015625)"/>
       </defs>
       <use xlink:href="#DejaVuSans-73"/>
       <use xlink:href="#DejaVuSans-30" transform="translate(52.099609 0)"/>
       <use xlink:href="#DejaVuSans-38" transform="translate(115.722656 0)"/>
      </g>
     </g>
    </g>
    <g id="xtick_9">
     <g id="line2d_9">
      <g>
       <use xlink:href="#mfb732aa814" x="293.999552" y="297.196875" style="stroke: #000000; stroke-width: 0.8"/>
      </g>
     </g>
     <g id="text_9">
      <!-- s09 -->
      <g transform="translate(277.017056 325.862185) rotate(-45) scale(0.12 -0.12)">
       <defs>
        <path id="DejaVuSans-39" d="M 703 97 
L 703 672 
Q 941 559 1184 500 
Q 1428 441 1663 441 
Q 2288 441 2617 861 
Q 2947 1281 2994 2138 
Q 2813 1869 2534 1725 
Q 2256 1581 1919 1581 
Q 1219 1581 811 2004 
Q 403 2428 403 3163 
Q 403 3881 828 4315 
Q 1253 4750 1959 4750 
Q 2769 4750 3195 4129 
Q 3622 3509 3622 2328 
Q 3622 1225 3098 567 
Q 2575 -91 1691 -91 
Q 1453 -91 1209 -44 
Q 966 3 703 97 
z
M 1959 2075 
Q 2384 2075 2632 2365 
Q 2881 2656 2881 3163 
Q 2881 3666 2632 3958 
Q 2384 4250 1959 4250 
Q 1534 4250 1286 3958 
Q 1038 3666 1038 3163 
Q 1038 2656 1286 2365 
Q 1534 2075 1959 2075 
z
" transform="scale(0.015625)"/>
       </defs>
       <use xlink:href="#DejaVuSans-73"/>
       <use xlink:href="#DejaVuSans-30" transform="translate(52.099609 0)"/>
       <use xlink:href="#DejaVuSans-39" transform="translate(115.722656 0)"/>
      </g>
     </g>
    </g>
    <g id="xtick_10">
     <g id="line2d_10">
      <g>
       <use xlink:href="#mfb732aa814" x="322.486508" y="297.196875" style="stroke: #000000; stroke-width: 0.8"/>
      </g>
     </g>
     <g id="text_10">
      <!-- s10 -->
      <g transform="translate(305.504013 325.862185) rotate(-45) scale(0.12 -0.12)">
       <use xlink:href="#DejaVuSans-73"/>
       <use xlink:href="#DejaVuSans-31" transform="translate(52.099609 0)"/>
       <use xlink:href="#DejaVuSans-30" transform="translate(115.722656 0)"/>
      </g>
     </g>
    </g>
    <g id="xtick_11">
     <g id="line2d_11">
      <g>
       <use xlink:href="#mfb732aa814" x="350.973465" y="297.196875" style="stroke: #000000; stroke-width: 0.8"/>
      </g>
     </g>
     <g id="text_11">
      <!-- s11 -->
      <g transform="translate(333.990969 325.862185) rotate(-45) scale(0.12 -0.12)">
       <use xlink:href="#DejaVuSans-73"/>
       <use xlink:href="#DejaVuSans-31" transform="translate(52.099609 0)"/>
       <use xlink:href="#DejaVuSans-31" transform="translate(115.722656 0)"/>
      </g>
     </g>
    </g>
    <g id="xtick_12">
     <g id="line2d_12">
      <g>
       <use xlink:href="#mfb732aa814" x="379.460421" y="297.196875" style="stroke: #000000; stroke-width: 0.8"/>
      </g>
     </g>
     <g id="text_12">
      <!-- s12 -->
      <g transform="translate(362.477926 325.862185) rotate(-45) scale(0.12 -0.12)">
       <use xlink:href="#DejaVuSans-73"/>
       <use xlink:href="#DejaVuSans-31" transform="translate(52.099609 0)"/>
       <use xlink:href="#DejaVuSans-32" transform="translate(115.722656 0)"/>
      </g>
     </g>
    </g>
    <g id="xtick_13">
     <g id="line2d_13">
      <g>
       <use xlink:href="#mfb732aa814" x="407.947378" y="297.196875" style="stroke: #000000; stroke-width: 0.8"/>
      </g>
     </g>
     <g id="text_13">
      <!-- s13 -->
      <g transform="translate(390.964883 325.862185) rotate(-45) scale(0.12 -0.12)">
       <use xlink:href="#DejaVuSans-73"/>
       <use xlink:href="#DejaVuSans-31" transform="translate(52.099609 0)"/>
       <use xlink:href="#DejaVuSans-33" transform="translate(115.722656 0)"/>
      </g>
     </g>
    </g>
    <g id="xtick_14">
     <g id="line2d_14">
      <g>
       <use xlink:href="#mfb732aa814" x="436.434334" y="297.196875" style="stroke: #000000; stroke-width: 0.8"/>
      </g>
     </g>
     <g id="text_14">
      <!-- s14 -->
      <g transform="translate(419.451839 325.862185) rotate(-45) scale(0.12 -0.12)">
       <use xlink:href="#DejaVuSans-73"/>
       <use xlink:href="#DejaVuSans-31" transform="translate(52.099609 0)"/>
       <use xlink:href="#DejaVuSans-34" transform="translate(115.722656 0)"/>
      </g>
     </g>
    </g>
    <g id="xtick_15">
     <g id="line2d_15">
      <g>
       <use xlink:href="#mfb732aa814" x="464.921291" y="297.196875" style="stroke: #000000; stroke-width: 0.8"/>
      </g>
     </g>
     <g id="text_15">
      <!-- s15 -->
      <g transform="translate(447.938796 325.862185) rotate(-45) scale(0.12 -0.12)">
       <use xlink:href="#DejaVuSans-73"/>
       <use xlink:href="#DejaVuSans-31" transform="translate(52.099609 0)"/>
       <use xlink:href="#DejaVuSans-35" transform="translate(115.722656 0)"/>
      </g>
     </g>
    </g>
    <g id="xtick_16">
     <g id="line2d_16">
      <g>
       <use xlink:href="#mfb732aa814" x="493.408247" y="297.196875" style="stroke: #000000; stroke-width: 0.8"/>
      </g>
     </g>
     <g id="text_16">
      <!-- s16 -->
      <g transform="translate(476.425752 325.862185) rotate(-45) scale(0.12 -0.12)">
       <use xlink:href="#DejaVuSans-73"/>
       <use xlink:href="#DejaVuSans-31" transform="translate(52.099609 0)"/>
       <use xlink:href="#DejaVuSans-36" transform="translate(115.722656 0)"/>
      </g>
     </g>
    </g>
    <g id="xtick_17">
     <g id="line2d_17">
      <g>
       <use xlink:href="#mfb732aa814" x="521.895204" y="297.196875" style="stroke: #000000; stroke-width: 0.8"/>
      </g>
     </g>
     <g id="text_17">
      <!-- s17 -->
      <g transform="translate(504.912709 325.862185) rotate(-45) scale(0.12 -0.12)">
       <use xlink:href="#DejaVuSans-73"/>
       <use xlink:href="#DejaVuSans-31" transform="translate(52.099609 0)"/>
       <use xlink:href="#DejaVuSans-37" transform="translate(115.722656 0)"/>
      </g>
     </g>
    </g>
    <g id="xtick_18">
     <g id="line2d_18">
      <g>
       <use xlink:href="#mfb732aa814" x="550.38216" y="297.196875" style="stroke: #000000; stroke-width: 0.8"/>
      </g>
     </g>
     <g id="text_18">
      <!-- s18 -->
      <g transform="translate(533.399665 325.862185) rotate(-45) scale(0.12 -0.12)">
       <use xlink:href="#DejaVuSans-73"/>
       <use xlink:href="#DejaVuSans-31" transform="translate(52.099609 0)"/>
       <use xlink:href="#DejaVuSans-38" transform="translate(115.722656 0)"/>
      </g>
     </g>
    </g>
    <g id="xtick_19">
     <g id="line2d_19">
      <g>
       <use xlink:href="#mfb732aa814" x="578.869117" y="297.196875" style="stroke: #000000; stroke-width: 0.8"/>
      </g>
     </g>
     <g id="text_19">
      <!-- s19 -->
      <g transform="translate(561.886622 325.862185) rotate(-45) scale(0.12 -0.12)">
       <use xlink:href="#DejaVuSans-73"/>
       <use xlink:href="#DejaVuSans-31" transform="translate(52.099609 0)"/>
       <use xlink:href="#DejaVuSans-39" transform="translate(115.722656 0)"/>
      </g>
     </g>
    </g>
    <g id="xtick_20">
     <g id="line2d_20">
      <g>
       <use xlink:href="#mfb732aa814" x="607.356073" y="297.196875" style="stroke: #000000; stroke-width: 0.8"/>
      </g>
     </g>
     <g id="text_20">
      <!-- s20 -->
      <g transform="translate(590.373578 325.862185) rotate(-45) scale(0.12 -0.12)">
       <use xlink:href="#DejaVuSans-73"/>
       <use xlink:href="#DejaVuSans-32" transform="translate(52.099609 0)"/>
       <use xlink:href="#DejaVuSans-30" transform="translate(115.722656 0)"/>
      </g>
     </g>
    </g>
    <g id="xtick_21">
     <g id="line2d_21">
      <g>
       <use xlink:href="#mfb732aa814" x="635.84303" y="297.196875" style="stroke: #000000; stroke-width: 0.8"/>
      </g>
     </g>
     <g id="text_21">
      <!-- s21 -->
      <g transform="translate(618.860535 325.862185) rotate(-45) scale(0.12 -0.12)">
       <use xlink:href="#DejaVuSans-73"/>
       <use xlink:href="#DejaVuSans-32" transform="translate(52.099609 0)"/>
       <use xlink:href="#DejaVuSans-31" transform="translate(115.722656 0)"/>
      </g>
     </g>
    </g>
    <g id="xtick_22">
     <g id="line2d_22">
      <g>
       <use xlink:href="#mfb732aa814" x="664.329986" y="297.196875" style="stroke: #000000; stroke-width: 0.8"/>
      </g>
     </g>
     <g id="text_22">
      <!-- s22 -->
      <g transform="translate(647.347491 325.862185) rotate(-45) scale(0.12 -0.12)">
       <use xlink:href="#DejaVuSans-73"/>
       <use xlink:href="#DejaVuSans-32" transform="translate(52.099609 0)"/>
       <use xlink:href="#DejaVuSans-32" transform="translate(115.722656 0)"/>
      </g>
     </g>
    </g>
    <g id="xtick_23">
     <g id="line2d_23">
      <g>
       <use xlink:href="#mfb732aa814" x="692.816943" y="297.196875" style="stroke: #000000; stroke-width: 0.8"/>
      </g>
     </g>
     <g id="text_23">
      <!-- s23 -->
      <g transform="translate(675.834448 325.862185) rotate(-45) scale(0.12 -0.12)">
       <use xlink:href="#DejaVuSans-73"/>
       <use xlink:href="#DejaVuSans-32" transform="translate(52.099609 0)"/>
       <use xlink:href="#DejaVuSans-33" transform="translate(115.722656 0)"/>
      </g>
     </g>
    </g>
    <g id="xtick_24">
     <g id="line2d_24">
      <g>
       <use xlink:href="#mfb732aa814" x="721.303899" y="297.196875" style="stroke: #000000; stroke-width: 0.8"/>
      </g>
     </g>
     <g id="text_24">
      <!-- s24 -->
      <g transform="translate(704.321404 325.862185) rotate(-45) scale(0.12 -0.12)">
       <use xlink:href="#DejaVuSans-73"/>
       <use xlink:href="#DejaVuSans-32" transform="translate(52.099609 0)"/>
       <use xlink:href="#DejaVuSans-34" transform="translate(115.722656 0)"/>
      </g>
     </g>
    </g>
    <g id="xtick_25">
     <g id="line2d_25">
      <g>
       <use xlink:href="#mfb732aa814" x="749.790856" y="297.196875" style="stroke: #000000; stroke-width: 0.8"/>
      </g>
     </g>
     <g id="text_25">
      <!-- s25 -->
      <g transform="translate(732.808361 325.862185) rotate(-45) scale(0.12 -0.12)">
       <use xlink:href="#DejaVuSans-73"/>
       <use xlink:href="#DejaVuSans-32" transform="translate(52.099609 0)"/>
       <use xlink:href="#DejaVuSans-35" transform="translate(115.722656 0)"/>
      </g>
     </g>
    </g>
    <g id="xtick_26">
     <g id="line2d_26">
      <g>
       <use xlink:href="#mfb732aa814" x="778.277812" y="297.196875" style="stroke: #000000; stroke-width: 0.8"/>
      </g>
     </g>
     <g id="text_26">
      <!-- s26 -->
      <g transform="translate(761.295317 325.862185) rotate(-45) scale(0.12 -0.12)">
       <use xlink:href="#DejaVuSans-73"/>
       <use xlink:href="#DejaVuSans-32" transform="translate(52.099609 0)"/>
       <use xlink:href="#DejaVuSans-36" transform="translate(115.722656 0)"/>
      </g>
     </g>
    </g>
    <g id="xtick_27">
     <g id="line2d_27">
      <g>
       <use xlink:href="#mfb732aa814" x="806.764769" y="297.196875" style="stroke: #000000; stroke-width: 0.8"/>
      </g>
     </g>
     <g id="text_27">
      <!-- s27 -->
      <g transform="translate(789.782274 325.862185) rotate(-45) scale(0.12 -0.12)">
       <use xlink:href="#DejaVuSans-73"/>
       <use xlink:href="#DejaVuSans-32" transform="translate(52.099609 0)"/>
       <use xlink:href="#DejaVuSans-37" transform="translate(115.722656 0)"/>
      </g>
     </g>
    </g>
    <g id="xtick_28">
     <g id="line2d_28">
      <g>
       <use xlink:href="#mfb732aa814" x="835.251726" y="297.196875" style="stroke: #000000; stroke-width: 0.8"/>
      </g>
     </g>
     <g id="text_28">
      <!-- s28 -->
      <g transform="translate(818.26923 325.862185) rotate(-45) scale(0.12 -0.12)">
       <use xlink:href="#DejaVuSans-73"/>
       <use xlink:href="#DejaVuSans-32" transform="translate(52.099609 0)"/>
       <use xlink:href="#DejaVuSans-38" transform="translate(115.722656 0)"/>
      </g>
     </g>
    </g>
    <g id="xtick_29">
     <g id="line2d_29">
      <g>
       <use xlink:href="#mfb732aa814" x="863.738682" y="297.196875" style="stroke: #000000; stroke-width: 0.8"/>
      </g>
     </g>
     <g id="text_29">
      <!-- s29 -->
      <g transform="translate(846.756187 325.862185) rotate(-45) scale(0.12 -0.12)">
       <use xlink:href="#DejaVuSans-73"/>
       <use xlink:href="#DejaVuSans-32" transform="translate(52.099609 0)"/>
       <use xlink:href="#DejaVuSans-39" transform="translate(115.722656 0)"/>
      </g>
     </g>
    </g>
    <g id="xtick_30">
     <g id="line2d_30">
      <g>
       <use xlink:href="#mfb732aa814" x="892.225639" y="297.196875" style="stroke: #000000; stroke-width: 0.8"/>
      </g>
     </g>
     <g id="text_30">
      <!-- s30 -->
      <g transform="translate(875.243143 325.862185) rotate(-45) scale(0.12 -0.12)">
       <use xlink:href="#DejaVuSans-73"/>
       <use xlink:href="#DejaVuSans-33" transform="translate(52.099609 0)"/>
       <use xlink:href="#DejaVuSans-30" transform="translate(115.722656 0)"/>
      </g>
     </g>
    </g>
    <g id="xtick_31">
     <g id="line2d_31">
      <g>
       <use xlink:href="#mfb732aa814" x="920.712595" y="297.196875" style="stroke: #000000; stroke-width: 0.8"/>
      </g>
     </g>
     <g id="text_31">
      <!-- s31 -->
      <g transform="translate(903.7301 325.862185) rotate(-45) scale(0.12 -0.12)">
       <use xlink:href="#DejaVuSans-73"/>
       <use xlink:href="#DejaVuSans-33" transform="translate(52.099609 0)"/>
       <use xlink:href="#DejaVuSans-31" transform="translate(115.722656 0)"/>
      </g>
     </g>
    </g>
    <g id="xtick_32">
     <g id="line2d_32">
      <g>
       <use xlink:href="#mfb732aa814" x="949.199552" y="297.196875" style="stroke: #000000; stroke-width: 0.8"/>
      </g>
     </g>
     <g id="text_32">
      <!-- s32 -->
      <g transform="translate(932.217056 325.862185) rotate(-45) scale(0.12 -0.12)">
       <use xlink:href="#DejaVuSans-73"/>
       <use xlink:href="#DejaVuSans-33" transform="translate(52.099609 0)"/>
       <use xlink:href="#DejaVuSans-32" transform="translate(115.722656 0)"/>
      </g>
     </g>
    </g>
    <g id="text_33">
     <!-- Subject -->
     <g transform="translate(484.421094 344.544202) scale(0.17 -0.17)">
      <defs>
       <path id="DejaVuSans-53" d="M 3425 4513 
L 3425 3897 
Q 3066 4069 2747 4153 
Q 2428 4238 2131 4238 
Q 1616 4238 1336 4038 
Q 1056 3838 1056 3469 
Q 1056 3159 1242 3001 
Q 1428 2844 1947 2747 
L 2328 2669 
Q 3034 2534 3370 2195 
Q 3706 1856 3706 1288 
Q 3706 609 3251 259 
Q 2797 -91 1919 -91 
Q 1588 -91 1214 -16 
Q 841 59 441 206 
L 441 856 
Q 825 641 1194 531 
Q 1563 422 1919 422 
Q 2459 422 2753 634 
Q 3047 847 3047 1241 
Q 3047 1584 2836 1778 
Q 2625 1972 2144 2069 
L 1759 2144 
Q 1053 2284 737 2584 
Q 422 2884 422 3419 
Q 422 4038 858 4394 
Q 1294 4750 2059 4750 
Q 2388 4750 2728 4690 
Q 3069 4631 3425 4513 
z
" transform="scale(0.015625)"/>
       <path id="DejaVuSans-75" d="M 544 1381 
L 544 3500 
L 1119 3500 
L 1119 1403 
Q 1119 906 1312 657 
Q 1506 409 1894 409 
Q 2359 409 2629 706 
Q 2900 1003 2900 1516 
L 2900 3500 
L 3475 3500 
L 3475 0 
L 2900 0 
L 2900 538 
Q 2691 219 2414 64 
Q 2138 -91 1772 -91 
Q 1169 -91 856 284 
Q 544 659 544 1381 
z
M 1991 3584 
L 1991 3584 
z
" transform="scale(0.015625)"/>
       <path id="DejaVuSans-62" d="M 3116 1747 
Q 3116 2381 2855 2742 
Q 2594 3103 2138 3103 
Q 1681 3103 1420 2742 
Q 1159 2381 1159 1747 
Q 1159 1113 1420 752 
Q 1681 391 2138 391 
Q 2594 391 2855 752 
Q 3116 1113 3116 1747 
z
M 1159 2969 
Q 1341 3281 1617 3432 
Q 1894 3584 2278 3584 
Q 2916 3584 3314 3078 
Q 3713 2572 3713 1747 
Q 3713 922 3314 415 
Q 2916 -91 2278 -91 
Q 1894 -91 1617 61 
Q 1341 213 1159 525 
L 1159 0 
L 581 0 
L 581 4863 
L 1159 4863 
L 1159 2969 
z
" transform="scale(0.015625)"/>
       <path id="DejaVuSans-6a" d="M 603 3500 
L 1178 3500 
L 1178 -63 
Q 1178 -731 923 -1031 
Q 669 -1331 103 -1331 
L -116 -1331 
L -116 -844 
L 38 -844 
Q 366 -844 484 -692 
Q 603 -541 603 -63 
L 603 3500 
z
M 603 4863 
L 1178 4863 
L 1178 4134 
L 603 4134 
L 603 4863 
z
" transform="scale(0.015625)"/>
       <path id="DejaVuSans-65" d="M 3597 1894 
L 3597 1613 
L 953 1613 
Q 991 1019 1311 708 
Q 1631 397 2203 397 
Q 2534 397 2845 478 
Q 3156 559 3463 722 
L 3463 178 
Q 3153 47 2828 -22 
Q 2503 -91 2169 -91 
Q 1331 -91 842 396 
Q 353 884 353 1716 
Q 353 2575 817 3079 
Q 1281 3584 2069 3584 
Q 2775 3584 3186 3129 
Q 3597 2675 3597 1894 
z
M 3022 2063 
Q 3016 2534 2758 2815 
Q 2500 3097 2075 3097 
Q 1594 3097 1305 2825 
Q 1016 2553 972 2059 
L 3022 2063 
z
" transform="scale(0.015625)"/>
       <path id="DejaVuSans-63" d="M 3122 3366 
L 3122 2828 
Q 2878 2963 2633 3030 
Q 2388 3097 2138 3097 
Q 1578 3097 1268 2742 
Q 959 2388 959 1747 
Q 959 1106 1268 751 
Q 1578 397 2138 397 
Q 2388 397 2633 464 
Q 2878 531 3122 666 
L 3122 134 
Q 2881 22 2623 -34 
Q 2366 -91 2075 -91 
Q 1284 -91 818 406 
Q 353 903 353 1747 
Q 353 2603 823 3093 
Q 1294 3584 2113 3584 
Q 2378 3584 2631 3529 
Q 2884 3475 3122 3366 
z
" transform="scale(0.015625)"/>
       <path id="DejaVuSans-74" d="M 1172 4494 
L 1172 3500 
L 2356 3500 
L 2356 3053 
L 1172 3053 
L 1172 1153 
Q 1172 725 1289 603 
Q 1406 481 1766 481 
L 2356 481 
L 2356 0 
L 1766 0 
Q 1100 0 847 248 
Q 594 497 594 1153 
L 594 3053 
L 172 3053 
L 172 3500 
L 594 3500 
L 594 4494 
L 1172 4494 
z
" transform="scale(0.015625)"/>
      </defs>
      <use xlink:href="#DejaVuSans-53"/>
      <use xlink:href="#DejaVuSans-75" transform="translate(63.476562 0)"/>
      <use xlink:href="#DejaVuSans-62" transform="translate(126.855469 0)"/>
      <use xlink:href="#DejaVuSans-6a" transform="translate(190.332031 0)"/>
      <use xlink:href="#DejaVuSans-65" transform="translate(218.115234 0)"/>
      <use xlink:href="#DejaVuSans-63" transform="translate(279.638672 0)"/>
      <use xlink:href="#DejaVuSans-74" transform="translate(334.619141 0)"/>
     </g>
    </g>
   </g>
   <g id="matplotlib.axis_2">
    <g id="ytick_1">
     <g id="line2d_33">
      <path d="M 57.557813 297.196875 
L 974.837812 297.196875 
" clip-path="url(#peb764c082c)" style="fill: none; stroke: #b0b0b0; stroke-opacity: 0.25; stroke-width: 0.8; stroke-linecap: square"/>
     </g>
     <g id="line2d_34">
      <defs>
       <path id="mb45712ce60" d="M 0 0 
L -3.5 0 
" style="stroke: #000000; stroke-width: 0.8"/>
      </defs>
      <g>
       <use xlink:href="#mb45712ce60" x="57.557813" y="297.196875" style="stroke: #000000; stroke-width: 0.8"/>
      </g>
     </g>
     <g id="text_34">
      <!-- 75 -->
      <g transform="translate(35.287813 301.755937) scale(0.12 -0.12)">
       <use xlink:href="#DejaVuSans-37"/>
       <use xlink:href="#DejaVuSans-35" transform="translate(63.623047 0)"/>
      </g>
     </g>
    </g>
    <g id="ytick_2">
     <g id="line2d_35">
      <path d="M 57.557813 244.636875 
L 974.837812 244.636875 
" clip-path="url(#peb764c082c)" style="fill: none; stroke: #b0b0b0; stroke-opacity: 0.25; stroke-width: 0.8; stroke-linecap: square"/>
     </g>
     <g id="line2d_36">
      <g>
       <use xlink:href="#mb45712ce60" x="57.557813" y="244.636875" style="stroke: #000000; stroke-width: 0.8"/>
      </g>
     </g>
     <g id="text_35">
      <!-- 80 -->
      <g transform="translate(35.287813 249.195937) scale(0.12 -0.12)">
       <use xlink:href="#DejaVuSans-38"/>
       <use xlink:href="#DejaVuSans-30" transform="translate(63.623047 0)"/>
      </g>
     </g>
    </g>
    <g id="ytick_3">
     <g id="line2d_37">
      <path d="M 57.557813 192.076875 
L 974.837812 192.076875 
" clip-path="url(#peb764c082c)" style="fill: none; stroke: #b0b0b0; stroke-opacity: 0.25; stroke-width: 0.8; stroke-linecap: square"/>
     </g>
     <g id="line2d_38">
      <g>
       <use xlink:href="#mb45712ce60" x="57.557813" y="192.076875" style="stroke: #000000; stroke-width: 0.8"/>
      </g>
     </g>
     <g id="text_36">
      <!-- 85 -->
      <g transform="translate(35.287813 196.635937) scale(0.12 -0.12)">
       <use xlink:href="#DejaVuSans-38"/>
       <use xlink:href="#DejaVuSans-35" transform="translate(63.623047 0)"/>
      </g>
     </g>
    </g>
    <g id="ytick_4">
     <g id="line2d_39">
      <path d="M 57.557813 139.516875 
L 974.837812 139.516875 
" clip-path="url(#peb764c082c)" style="fill: none; stroke: #b0b0b0; stroke-opacity: 0.25; stroke-width: 0.8; stroke-linecap: square"/>
     </g>
     <g id="line2d_40">
      <g>
       <use xlink:href="#mb45712ce60" x="57.557813" y="139.516875" style="stroke: #000000; stroke-width: 0.8"/>
      </g>
     </g>
     <g id="text_37">
      <!-- 90 -->
      <g transform="translate(35.287813 144.075937) scale(0.12 -0.12)">
       <use xlink:href="#DejaVuSans-39"/>
       <use xlink:href="#DejaVuSans-30" transform="translate(63.623047 0)"/>
      </g>
     </g>
    </g>
    <g id="ytick_5">
     <g id="line2d_41">
      <path d="M 57.557813 86.956875 
L 974.837812 86.956875 
" clip-path="url(#peb764c082c)" style="fill: none; stroke: #b0b0b0; stroke-opacity: 0.25; stroke-width: 0.8; stroke-linecap: square"/>
     </g>
     <g id="line2d_42">
      <g>
       <use xlink:href="#mb45712ce60" x="57.557813" y="86.956875" style="stroke: #000000; stroke-width: 0.8"/>
      </g>
     </g>
     <g id="text_38">
      <!-- 95 -->
      <g transform="translate(35.287813 91.515937) scale(0.12 -0.12)">
       <use xlink:href="#DejaVuSans-39"/>
       <use xlink:href="#DejaVuSans-35" transform="translate(63.623047 0)"/>
      </g>
     </g>
    </g>
    <g id="ytick_6">
     <g id="line2d_43">
      <path d="M 57.557813 34.396875 
L 974.837812 34.396875 
" clip-path="url(#peb764c082c)" style="fill: none; stroke: #b0b0b0; stroke-opacity: 0.25; stroke-width: 0.8; stroke-linecap: square"/>
     </g>
     <g id="line2d_44">
      <g>
       <use xlink:href="#mb45712ce60" x="57.557813" y="34.396875" style="stroke: #000000; stroke-width: 0.8"/>
      </g>
     </g>
     <g id="text_39">
      <!-- 100 -->
      <g transform="translate(27.652813 38.955937) scale(0.12 -0.12)">
       <use xlink:href="#DejaVuSans-31"/>
       <use xlink:href="#DejaVuSans-30" transform="translate(63.623047 0)"/>
       <use xlink:href="#DejaVuSans-30" transform="translate(127.246094 0)"/>
      </g>
     </g>
    </g>
    <g id="text_40">
     <!-- Accuracy (%) -->
     <g transform="translate(20.117344 222.015078) rotate(-90) scale(0.17 -0.17)">
      <defs>
       <path id="DejaVuSans-41" d="M 2188 4044 
L 1331 1722 
L 3047 1722 
L 2188 4044 
z
M 1831 4666 
L 2547 4666 
L 4325 0 
L 3669 0 
L 3244 1197 
L 1141 1197 
L 716 0 
L 50 0 
L 1831 4666 
z
" transform="scale(0.015625)"/>
       <path id="DejaVuSans-72" d="M 2631 2963 
Q 2534 3019 2420 3045 
Q 2306 3072 2169 3072 
Q 1681 3072 1420 2755 
Q 1159 2438 1159 1844 
L 1159 0 
L 581 0 
L 581 3500 
L 1159 3500 
L 1159 2956 
Q 1341 3275 1631 3429 
Q 1922 3584 2338 3584 
Q 2397 3584 2469 3576 
Q 2541 3569 2628 3553 
L 2631 2963 
z
" transform="scale(0.015625)"/>
       <path id="DejaVuSans-61" d="M 2194 1759 
Q 1497 1759 1228 1600 
Q 959 1441 959 1056 
Q 959 750 1161 570 
Q 1363 391 1709 391 
Q 2188 391 2477 730 
Q 2766 1069 2766 1631 
L 2766 1759 
L 2194 1759 
z
M 3341 1997 
L 3341 0 
L 2766 0 
L 2766 531 
Q 2569 213 2275 61 
Q 1981 -91 1556 -91 
Q 1019 -91 701 211 
Q 384 513 384 1019 
Q 384 1609 779 1909 
Q 1175 2209 1959 2209 
L 2766 2209 
L 2766 2266 
Q 2766 2663 2505 2880 
Q 2244 3097 1772 3097 
Q 1472 3097 1187 3025 
Q 903 2953 641 2809 
L 641 3341 
Q 956 3463 1253 3523 
Q 1550 3584 1831 3584 
Q 2591 3584 2966 3190 
Q 3341 2797 3341 1997 
z
" transform="scale(0.015625)"/>
       <path id="DejaVuSans-79" d="M 2059 -325 
Q 1816 -950 1584 -1140 
Q 1353 -1331 966 -1331 
L 506 -1331 
L 506 -850 
L 844 -850 
Q 1081 -850 1212 -737 
Q 1344 -625 1503 -206 
L 1606 56 
L 191 3500 
L 800 3500 
L 1894 763 
L 2988 3500 
L 3597 3500 
L 2059 -325 
z
" transform="scale(0.015625)"/>
       <path id="DejaVuSans-20" transform="scale(0.015625)"/>
       <path id="DejaVuSans-28" d="M 1984 4856 
Q 1566 4138 1362 3434 
Q 1159 2731 1159 2009 
Q 1159 1288 1364 580 
Q 1569 -128 1984 -844 
L 1484 -844 
Q 1016 -109 783 600 
Q 550 1309 550 2009 
Q 550 2706 781 3412 
Q 1013 4119 1484 4856 
L 1984 4856 
z
" transform="scale(0.015625)"/>
       <path id="DejaVuSans-25" d="M 4653 2053 
Q 4381 2053 4226 1822 
Q 4072 1591 4072 1178 
Q 4072 772 4226 539 
Q 4381 306 4653 306 
Q 4919 306 5073 539 
Q 5228 772 5228 1178 
Q 5228 1588 5073 1820 
Q 4919 2053 4653 2053 
z
M 4653 2450 
Q 5147 2450 5437 2106 
Q 5728 1763 5728 1178 
Q 5728 594 5436 251 
Q 5144 -91 4653 -91 
Q 4153 -91 3862 251 
Q 3572 594 3572 1178 
Q 3572 1766 3864 2108 
Q 4156 2450 4653 2450 
z
M 1428 4353 
Q 1159 4353 1004 4120 
Q 850 3888 850 3481 
Q 850 3069 1003 2837 
Q 1156 2606 1428 2606 
Q 1700 2606 1854 2837 
Q 2009 3069 2009 3481 
Q 2009 3884 1853 4118 
Q 1697 4353 1428 4353 
z
M 4250 4750 
L 4750 4750 
L 1831 -91 
L 1331 -91 
L 4250 4750 
z
M 1428 4750 
Q 1922 4750 2215 4408 
Q 2509 4066 2509 3481 
Q 2509 2891 2217 2550 
Q 1925 2209 1428 2209 
Q 931 2209 642 2551 
Q 353 2894 353 3481 
Q 353 4063 643 4406 
Q 934 4750 1428 4750 
z
" transform="scale(0.015625)"/>
       <path id="DejaVuSans-29" d="M 513 4856 
L 1013 4856 
Q 1481 4119 1714 3412 
Q 1947 2706 1947 2009 
Q 1947 1309 1714 600 
Q 1481 -109 1013 -844 
L 513 -844 
Q 928 -128 1133 580 
Q 1338 1288 1338 2009 
Q 1338 2731 1133 3434 
Q 928 4138 513 4856 
z
" transform="scale(0.015625)"/>
      </defs>
      <use xlink:href="#DejaVuSans-41"/>
      <use xlink:href="#DejaVuSans-63" transform="translate(66.658203 0)"/>
      <use xlink:href="#DejaVuSans-63" transform="translate(121.638672 0)"/>
      <use xlink:href="#DejaVuSans-75" transform="translate(176.619141 0)"/>
      <use xlink:href="#DejaVuSans-72" transform="translate(239.998047 0)"/>
      <use xlink:href="#DejaVuSans-61" transform="translate(281.111328 0)"/>
      <use xlink:href="#DejaVuSans-63" transform="translate(342.390625 0)"/>
      <use xlink:href="#DejaVuSans-79" transform="translate(397.371094 0)"/>
      <use xlink:href="#DejaVuSans-20" transform="translate(456.550781 0)"/>
      <use xlink:href="#DejaVuSans-28" transform="translate(488.337891 0)"/>
      <use xlink:href="#DejaVuSans-25" transform="translate(527.351562 0)"/>
      <use xlink:href="#DejaVuSans-29" transform="translate(622.371094 0)"/>
     </g>
    </g>
   </g>
   <g id="line2d_45">
    <path d="M 66.103899 60.676869 
L 94.590856 168.424885 
L 123.077813 83.014879 
L 151.564769 201.274879 
L 180.051726 97.468896 
L 208.538682 130.318884 
L 237.025639 77.758871 
L 265.512595 75.130886 
L 293.999552 113.236888 
L 322.486508 54.106869 
L 350.973465 224.926875 
L 379.460421 165.796881 
L 407.947378 171.052895 
L 436.434334 143.458878 
L 464.921291 67.246875 
L 493.408247 80.386881 
L 521.895204 211.786888 
L 550.38216 126.376869 
L 578.869117 59.36287 
L 607.356073 52.79287 
L 635.84303 150.028884 
L 664.329986 105.352883 
L 692.816943 65.93287 
L 721.303899 96.154885 
L 749.790856 142.144885 
L 778.277812 136.88889 
L 806.764769 79.072883 
L 835.251726 150.028878 
L 863.738682 63.304866 
L 892.225639 61.990861 
L 920.712595 111.922889 
L 949.199552 143.45889 
" clip-path="url(#peb764c082c)" style="fill: none; stroke: #1f77b4; stroke-width: 2.3; stroke-linecap: square"/>
    <defs>
     <path id="mfefec18c13" d="M 0 2.25 
C 0.596707 2.25 1.169055 2.012926 1.59099 1.59099 
C 2.012926 1.169055 2.25 0.596707 2.25 0 
C 2.25 -0.596707 2.012926 -1.169055 1.59099 -1.59099 
C 1.169055 -2.012926 0.596707 -2.25 0 -2.25 
C -0.596707 -2.25 -1.169055 -2.012926 -1.59099 -1.59099 
C -2.012926 -1.169055 -2.25 -0.596707 -2.25 0 
C -2.25 0.596707 -2.012926 1.169055 -1.59099 1.59099 
C -1.169055 2.012926 -0.596707 2.25 0 2.25 
z
" style="stroke: #1f77b4"/>
    </defs>
    <g clip-path="url(#peb764c082c)">
     <use xlink:href="#mfefec18c13" x="66.103899" y="60.676869" style="fill: #1f77b4; stroke: #1f77b4"/>
     <use xlink:href="#mfefec18c13" x="94.590856" y="168.424885" style="fill: #1f77b4; stroke: #1f77b4"/>
     <use xlink:href="#mfefec18c13" x="123.077813" y="83.014879" style="fill: #1f77b4; stroke: #1f77b4"/>
     <use xlink:href="#mfefec18c13" x="151.564769" y="201.274879" style="fill: #1f77b4; stroke: #1f77b4"/>
     <use xlink:href="#mfefec18c13" x="180.051726" y="97.468896" style="fill: #1f77b4; stroke: #1f77b4"/>
     <use xlink:href="#mfefec18c13" x="208.538682" y="130.318884" style="fill: #1f77b4; stroke: #1f77b4"/>
     <use xlink:href="#mfefec18c13" x="237.025639" y="77.758871" style="fill: #1f77b4; stroke: #1f77b4"/>
     <use xlink:href="#mfefec18c13" x="265.512595" y="75.130886" style="fill: #1f77b4; stroke: #1f77b4"/>
     <use xlink:href="#mfefec18c13" x="293.999552" y="113.236888" style="fill: #1f77b4; stroke: #1f77b4"/>
     <use xlink:href="#mfefec18c13" x="322.486508" y="54.106869" style="fill: #1f77b4; stroke: #1f77b4"/>
     <use xlink:href="#mfefec18c13" x="350.973465" y="224.926875" style="fill: #1f77b4; stroke: #1f77b4"/>
     <use xlink:href="#mfefec18c13" x="379.460421" y="165.796881" style="fill: #1f77b4; stroke: #1f77b4"/>
     <use xlink:href="#mfefec18c13" x="407.947378" y="171.052895" style="fill: #1f77b4; stroke: #1f77b4"/>
     <use xlink:href="#mfefec18c13" x="436.434334" y="143.458878" style="fill: #1f77b4; stroke: #1f77b4"/>
     <use xlink:href="#mfefec18c13" x="464.921291" y="67.246875" style="fill: #1f77b4; stroke: #1f77b4"/>
     <use xlink:href="#mfefec18c13" x="493.408247" y="80.386881" style="fill: #1f77b4; stroke: #1f77b4"/>
     <use xlink:href="#mfefec18c13" x="521.895204" y="211.786888" style="fill: #1f77b4; stroke: #1f77b4"/>
     <use xlink:href="#mfefec18c13" x="550.38216" y="126.376869" style="fill: #1f77b4; stroke: #1f77b4"/>
     <use xlink:href="#mfefec18c13" x="578.869117" y="59.36287" style="fill: #1f77b4; stroke: #1f77b4"/>
     <use xlink:href="#mfefec18c13" x="607.356073" y="52.79287" style="fill: #1f77b4; stroke: #1f77b4"/>
     <use xlink:href="#mfefec18c13" x="635.84303" y="150.028884" style="fill: #1f77b4; stroke: #1f77b4"/>
     <use xlink:href="#mfefec18c13" x="664.329986" y="105.352883" style="fill: #1f77b4; stroke: #1f77b4"/>
     <use xlink:href="#mfefec18c13" x="692.816943" y="65.93287" style="fill: #1f77b4; stroke: #1f77b4"/>
     <use xlink:href="#mfefec18c13" x="721.303899" y="96.154885" style="fill: #1f77b4; stroke: #1f77b4"/>
     <use xlink:href="#mfefec18c13" x="749.790856" y="142.144885" style="fill: #1f77b4; stroke: #1f77b4"/>
     <use xlink:href="#mfefec18c13" x="778.277812" y="136.88889" style="fill: #1f77b4; stroke: #1f77b4"/>
     <use xlink:href="#mfefec18c13" x="806.764769" y="79.072883" style="fill: #1f77b4; stroke: #1f77b4"/>
     <use xlink:href="#mfefec18c13" x="835.251726" y="150.028878" style="fill: #1f77b4; stroke: #1f77b4"/>
     <use xlink:href="#mfefec18c13" x="863.738682" y="63.304866" style="fill: #1f77b4; stroke: #1f77b4"/>
     <use xlink:href="#mfefec18c13" x="892.225639" y="61.990861" style="fill: #1f77b4; stroke: #1f77b4"/>
     <use xlink:href="#mfefec18c13" x="920.712595" y="111.922889" style="fill: #1f77b4; stroke: #1f77b4"/>
     <use xlink:href="#mfefec18c13" x="949.199552" y="143.45889" style="fill: #1f77b4; stroke: #1f77b4"/>
    </g>
   </g>
   <g id="line2d_46">
    <path d="M 66.103899 63.304872 
L 94.590856 186.82088 
L 123.077813 60.676881 
L 151.564769 177.622883 
L 180.051726 121.120886 
L 208.538682 129.004885 
L 237.025639 106.666894 
L 265.512595 72.50287 
L 293.999552 140.830886 
L 322.486508 72.502864 
L 350.973465 261.718878 
L 379.460421 126.376875 
L 407.947378 118.492883 
L 436.434334 160.540874 
L 464.921291 67.246875 
L 493.408247 69.874872 
L 521.895204 184.192876 
L 550.38216 136.888884 
L 578.869117 77.758878 
L 607.356073 55.420867 
L 635.84303 79.072883 
L 664.329986 101.410874 
L 692.816943 77.758865 
L 721.303899 59.36287 
L 749.790856 113.236888 
L 778.277812 156.598884 
L 806.764769 77.758878 
L 835.251726 153.970867 
L 863.738682 56.734879 
L 892.225639 79.072883 
L 920.712595 121.120886 
L 949.199552 135.574885 
" clip-path="url(#peb764c082c)" style="fill: none; stroke: #d62728; stroke-width: 2.3; stroke-linecap: square"/>
    <defs>
     <path id="md719ac6f5c" d="M -2.1 2.1 
L 2.1 2.1 
L 2.1 -2.1 
L -2.1 -2.1 
z
" style="stroke: #d62728; stroke-linejoin: miter"/>
    </defs>
    <g clip-path="url(#peb764c082c)">
     <use xlink:href="#md719ac6f5c" x="66.103899" y="63.304872" style="fill: #d62728; stroke: #d62728; stroke-linejoin: miter"/>
     <use xlink:href="#md719ac6f5c" x="94.590856" y="186.82088" style="fill: #d62728; stroke: #d62728; stroke-linejoin: miter"/>
     <use xlink:href="#md719ac6f5c" x="123.077813" y="60.676881" style="fill: #d62728; stroke: #d62728; stroke-linejoin: miter"/>
     <use xlink:href="#md719ac6f5c" x="151.564769" y="177.622883" style="fill: #d62728; stroke: #d62728; stroke-linejoin: miter"/>
     <use xlink:href="#md719ac6f5c" x="180.051726" y="121.120886" style="fill: #d62728; stroke: #d62728; stroke-linejoin: miter"/>
     <use xlink:href="#md719ac6f5c" x="208.538682" y="129.004885" style="fill: #d62728; stroke: #d62728; stroke-linejoin: miter"/>
     <use xlink:href="#md719ac6f5c" x="237.025639" y="106.666894" style="fill: #d62728; stroke: #d62728; stroke-linejoin: miter"/>
     <use xlink:href="#md719ac6f5c" x="265.512595" y="72.50287" style="fill: #d62728; stroke: #d62728; stroke-linejoin: miter"/>
     <use xlink:href="#md719ac6f5c" x="293.999552" y="140.830886" style="fill: #d62728; stroke: #d62728; stroke-linejoin: miter"/>
     <use xlink:href="#md719ac6f5c" x="322.486508" y="72.502864" style="fill: #d62728; stroke: #d62728; stroke-linejoin: miter"/>
     <use xlink:href="#md719ac6f5c" x="350.973465" y="261.718878" style="fill: #d62728; stroke: #d62728; stroke-linejoin: miter"/>
     <use xlink:href="#md719ac6f5c" x="379.460421" y="126.376875" style="fill: #d62728; stroke: #d62728; stroke-linejoin: miter"/>
     <use xlink:href="#md719ac6f5c" x="407.947378" y="118.492883" style="fill: #d62728; stroke: #d62728; stroke-linejoin: miter"/>
     <use xlink:href="#md719ac6f5c" x="436.434334" y="160.540874" style="fill: #d62728; stroke: #d62728; stroke-linejoin: miter"/>
     <use xlink:href="#md719ac6f5c" x="464.921291" y="67.246875" style="fill: #d62728; stroke: #d62728; stroke-linejoin: miter"/>
     <use xlink:href="#md719ac6f5c" x="493.408247" y="69.874872" style="fill: #d62728; stroke: #d62728; stroke-linejoin: miter"/>
     <use xlink:href="#md719ac6f5c" x="521.895204" y="184.192876" style="fill: #d62728; stroke: #d62728; stroke-linejoin: miter"/>
     <use xlink:href="#md719ac6f5c" x="550.38216" y="136.888884" style="fill: #d62728; stroke: #d62728; stroke-linejoin: miter"/>
     <use xlink:href="#md719ac6f5c" x="578.869117" y="77.758878" style="fill: #d62728; stroke: #d62728; stroke-linejoin: miter"/>
     <use xlink:href="#md719ac6f5c" x="607.356073" y="55.420867" style="fill: #d62728; stroke: #d62728; stroke-linejoin: miter"/>
     <use xlink:href="#md719ac6f5c" x="635.84303" y="79.072883" style="fill: #d62728; stroke: #d62728; stroke-linejoin: miter"/>
     <use xlink:href="#md719ac6f5c" x="664.329986" y="101.410874" style="fill: #d62728; stroke: #d62728; stroke-linejoin: miter"/>
     <use xlink:href="#md719ac6f5c" x="692.816943" y="77.758865" style="fill: #d62728; stroke: #d62728; stroke-linejoin: miter"/>
     <use xlink:href="#md719ac6f5c" x="721.303899" y="59.36287" style="fill: #d62728; stroke: #d62728; stroke-linejoin: miter"/>
     <use xlink:href="#md719ac6f5c" x="749.790856" y="113.236888" style="fill: #d62728; stroke: #d62728; stroke-linejoin: miter"/>
     <use xlink:href="#md719ac6f5c" x="778.277812" y="156.598884" style="fill: #d62728; stroke: #d62728; stroke-linejoin: miter"/>
     <use xlink:href="#md719ac6f5c" x="806.764769" y="77.758878" style="fill: #d62728; stroke: #d62728; stroke-linejoin: miter"/>
     <use xlink:href="#md719ac6f5c" x="835.251726" y="153.970867" style="fill: #d62728; stroke: #d62728; stroke-linejoin: miter"/>
     <use xlink:href="#md719ac6f5c" x="863.738682" y="56.734879" style="fill: #d62728; stroke: #d62728; stroke-linejoin: miter"/>
     <use xlink:href="#md719ac6f5c" x="892.225639" y="79.072883" style="fill: #d62728; stroke: #d62728; stroke-linejoin: miter"/>
     <use xlink:href="#md719ac6f5c" x="920.712595" y="121.120886" style="fill: #d62728; stroke: #d62728; stroke-linejoin: miter"/>
     <use xlink:href="#md719ac6f5c" x="949.199552" y="135.574885" style="fill: #d62728; stroke: #d62728; stroke-linejoin: miter"/>
    </g>
   </g>
   <g id="line2d_47">
    <path d="M 57.557813 110.713995 
L 974.837812 110.713995 
" clip-path="url(#peb764c082c)" style="fill: none; stroke-dasharray: 5.55,2.4; stroke-dashoffset: 0; stroke: #9ecae1; stroke-opacity: 0.75; stroke-width: 1.5"/>
   </g>
   <g id="line2d_48">
    <path d="M 57.557813 106.509195 
L 974.837812 106.509195 
" clip-path="url(#peb764c082c)" style="fill: none; stroke-dasharray: 5.55,2.4; stroke-dashoffset: 0; stroke: #fcae91; stroke-opacity: 0.75; stroke-width: 1.5"/>
   </g>
   <g id="line2d_49">
    <path d="M 57.557813 114.71513 
L 974.837812 114.71513 
" clip-path="url(#peb764c082c)" style="fill: none; stroke-dasharray: 9.6,2.4,1.5,2.4; stroke-dashoffset: 0; stroke: #3182bd; stroke-opacity: 0.9; stroke-width: 1.5"/>
   </g>
   <g id="line2d_50">
    <path d="M 57.557813 112.538816 
L 974.837812 112.538816 
" clip-path="url(#peb764c082c)" style="fill: none; stroke-dasharray: 9.6,2.4,1.5,2.4; stroke-dashoffset: 0; stroke: #e6550d; stroke-opacity: 0.9; stroke-width: 1.5"/>
   </g>
   <g id="patch_3">
    <path d="M 57.557813 297.196875 
L 57.557813 34.396875 
" style="fill: none; stroke: #000000; stroke-width: 0.8; stroke-linejoin: miter; stroke-linecap: square"/>
   </g>
   <g id="patch_4">
    <path d="M 57.557813 297.196875 
L 974.837812 297.196875 
" style="fill: none; stroke: #000000; stroke-width: 0.8; stroke-linejoin: miter; stroke-linecap: square"/>
   </g>
   <g id="text_41">
    <!-- Full ACRNN Reproduction on DEAP (s01-s32) -->
    <g transform="translate(294.68375 22.396875) scale(0.2 -0.2)">
     <defs>
      <path id="DejaVuSans-46" d="M 628 4666 
L 3309 4666 
L 3309 4134 
L 1259 4134 
L 1259 2759 
L 3109 2759 
L 3109 2228 
L 1259 2228 
L 1259 0 
L 628 0 
L 628 4666 
z
" transform="scale(0.015625)"/>
      <path id="DejaVuSans-6c" d="M 603 4863 
L 1178 4863 
L 1178 0 
L 603 0 
L 603 4863 
z
" transform="scale(0.015625)"/>
      <path id="DejaVuSans-43" d="M 4122 4306 
L 4122 3641 
Q 3803 3938 3442 4084 
Q 3081 4231 2675 4231 
Q 1875 4231 1450 3742 
Q 1025 3253 1025 2328 
Q 1025 1406 1450 917 
Q 1875 428 2675 428 
Q 3081 428 3442 575 
Q 3803 722 4122 1019 
L 4122 359 
Q 3791 134 3420 21 
Q 3050 -91 2638 -91 
Q 1578 -91 968 557 
Q 359 1206 359 2328 
Q 359 3453 968 4101 
Q 1578 4750 2638 4750 
Q 3056 4750 3426 4639 
Q 3797 4528 4122 4306 
z
" transform="scale(0.015625)"/>
      <path id="DejaVuSans-52" d="M 2841 2188 
Q 3044 2119 3236 1894 
Q 3428 1669 3622 1275 
L 4263 0 
L 3584 0 
L 2988 1197 
Q 2756 1666 2539 1819 
Q 2322 1972 1947 1972 
L 1259 1972 
L 1259 0 
L 628 0 
L 628 4666 
L 2053 4666 
Q 2853 4666 3247 4331 
Q 3641 3997 3641 3322 
Q 3641 2881 3436 2590 
Q 3231 2300 2841 2188 
z
M 1259 4147 
L 1259 2491 
L 2053 2491 
Q 2509 2491 2742 2702 
Q 2975 2913 2975 3322 
Q 2975 3731 2742 3939 
Q 2509 4147 2053 4147 
L 1259 4147 
z
" transform="scale(0.015625)"/>
      <path id="DejaVuSans-4e" d="M 628 4666 
L 1478 4666 
L 3547 763 
L 3547 4666 
L 4159 4666 
L 4159 0 
L 3309 0 
L 1241 3903 
L 1241 0 
L 628 0 
L 628 4666 
z
" transform="scale(0.015625)"/>
      <path id="DejaVuSans-70" d="M 1159 525 
L 1159 -1331 
L 581 -1331 
L 581 3500 
L 1159 3500 
L 1159 2969 
Q 1341 3281 1617 3432 
Q 1894 3584 2278 3584 
Q 2916 3584 3314 3078 
Q 3713 2572 3713 1747 
Q 3713 922 3314 415 
Q 2916 -91 2278 -91 
Q 1894 -91 1617 61 
Q 1341 213 1159 525 
z
M 3116 1747 
Q 3116 2381 2855 2742 
Q 2594 3103 2138 3103 
Q 1681 3103 1420 2742 
Q 1159 2381 1159 1747 
Q 1159 1113 1420 752 
Q 1681 391 2138 391 
Q 2594 391 2855 752 
Q 3116 1113 3116 1747 
z
" transform="scale(0.015625)"/>
      <path id="DejaVuSans-6f" d="M 1959 3097 
Q 1497 3097 1228 2736 
Q 959 2375 959 1747 
Q 959 1119 1226 758 
Q 1494 397 1959 397 
Q 2419 397 2687 759 
Q 2956 1122 2956 1747 
Q 2956 2369 2687 2733 
Q 2419 3097 1959 3097 
z
M 1959 3584 
Q 2709 3584 3137 3096 
Q 3566 2609 3566 1747 
Q 3566 888 3137 398 
Q 2709 -91 1959 -91 
Q 1206 -91 779 398 
Q 353 888 353 1747 
Q 353 2609 779 3096 
Q 1206 3584 1959 3584 
z
" transform="scale(0.015625)"/>
      <path id="DejaVuSans-64" d="M 2906 2969 
L 2906 4863 
L 3481 4863 
L 3481 0 
L 2906 0 
L 2906 525 
Q 2725 213 2448 61 
Q 2172 -91 1784 -91 
Q 1150 -91 751 415 
Q 353 922 353 1747 
Q 353 2572 751 3078 
Q 1150 3584 1784 3584 
Q 2172 3584 2448 3432 
Q 2725 3281 2906 2969 
z
M 947 1747 
Q 947 1113 1208 752 
Q 1469 391 1925 391 
Q 2381 391 2643 752 
Q 2906 1113 2906 1747 
Q 2906 2381 2643 2742 
Q 2381 3103 1925 3103 
Q 1469 3103 1208 2742 
Q 947 2381 947 1747 
z
" transform="scale(0.015625)"/>
      <path id="DejaVuSans-69" d="M 603 3500 
L 1178 3500 
L 1178 0 
L 603 0 
L 603 3500 
z
M 603 4863 
L 1178 4863 
L 1178 4134 
L 603 4134 
L 603 4863 
z
" transform="scale(0.015625)"/>
      <path id="DejaVuSans-6e" d="M 3513 2113 
L 3513 0 
L 2938 0 
L 2938 2094 
Q 2938 2591 2744 2837 
Q 2550 3084 2163 3084 
Q 1697 3084 1428 2787 
Q 1159 2491 1159 1978 
L 1159 0 
L 581 0 
L 581 3500 
L 1159 3500 
L 1159 2956 
Q 1366 3272 1645 3428 
Q 1925 3584 2291 3584 
Q 2894 3584 3203 3211 
Q 3513 2838 3513 2113 
z
" transform="scale(0.015625)"/>
      <path id="DejaVuSans-44" d="M 1259 4147 
L 1259 519 
L 2022 519 
Q 2988 519 3436 956 
Q 3884 1394 3884 2338 
Q 3884 3275 3436 3711 
Q 2988 4147 2022 4147 
L 1259 4147 
z
M 628 4666 
L 1925 4666 
Q 3281 4666 3915 4102 
Q 4550 3538 4550 2338 
Q 4550 1131 3912 565 
Q 3275 0 1925 0 
L 628 0 
L 628 4666 
z
" transform="scale(0.015625)"/>
      <path id="DejaVuSans-45" d="M 628 4666 
L 3578 4666 
L 3578 4134 
L 1259 4134 
L 1259 2753 
L 3481 2753 
L 3481 2222 
L 1259 2222 
L 1259 531 
L 3634 531 
L 3634 0 
L 628 0 
L 628 4666 
z
" transform="scale(0.015625)"/>
      <path id="DejaVuSans-50" d="M 1259 4147 
L 1259 2394 
L 2053 2394 
Q 2494 2394 2734 2622 
Q 2975 2850 2975 3272 
Q 2975 3691 2734 3919 
Q 2494 4147 2053 4147 
L 1259 4147 
z
M 628 4666 
L 2053 4666 
Q 2838 4666 3239 4311 
Q 3641 3956 3641 3272 
Q 3641 2581 3239 2228 
Q 2838 1875 2053 1875 
L 1259 1875 
L 1259 0 
L 628 0 
L 628 4666 
z
" transform="scale(0.015625)"/>
      <path id="DejaVuSans-2d" d="M 313 2009 
L 1997 2009 
L 1997 1497 
L 313 1497 
L 313 2009 
z
" transform="scale(0.015625)"/>
     </defs>
     <use xlink:href="#DejaVuSans-46"/>
     <use xlink:href="#DejaVuSans-75" transform="translate(52.019531 0)"/>
     <use xlink:href="#DejaVuSans-6c" transform="translate(115.398438 0)"/>
     <use xlink:href="#DejaVuSans-6c" transform="translate(143.181641 0)"/>
     <use xlink:href="#DejaVuSans-20" transform="translate(170.964844 0)"/>
     <use xlink:href="#DejaVuSans-41" transform="translate(202.751953 0)"/>
     <use xlink:href="#DejaVuSans-43" transform="translate(269.410156 0)"/>
     <use xlink:href="#DejaVuSans-52" transform="translate(339.234375 0)"/>
     <use xlink:href="#DejaVuSans-4e" transform="translate(408.716797 0)"/>
     <use xlink:href="#DejaVuSans-4e" transform="translate(483.521484 0)"/>
     <use xlink:href="#DejaVuSans-20" transform="translate(558.326172 0)"/>
     <use xlink:href="#DejaVuSans-52" transform="translate(590.113281 0)"/>
     <use xlink:href="#DejaVuSans-65" transform="translate(655.095703 0)"/>
     <use xlink:href="#DejaVuSans-70" transform="translate(716.619141 0)"/>
     <use xlink:href="#DejaVuSans-72" transform="translate(780.095703 0)"/>
     <use xlink:href="#DejaVuSans-6f" transform="translate(818.958984 0)"/>
     <use xlink:href="#DejaVuSans-64" transform="translate(880.140625 0)"/>
     <use xlink:href="#DejaVuSans-75" transform="translate(943.617188 0)"/>
     <use xlink:href="#DejaVuSans-63" transform="translate(1006.996094 0)"/>
     <use xlink:href="#DejaVuSans-74" transform="translate(1061.976562 0)"/>
     <use xlink:href="#DejaVuSans-69" transform="translate(1101.185547 0)"/>
     <use xlink:href="#DejaVuSans-6f" transform="translate(1128.96875 0)"/>
     <use xlink:href="#DejaVuSans-6e" transform="translate(1190.150391 0)"/>
     <use xlink:href="#DejaVuSans-20" transform="translate(1253.529297 0)"/>
     <use xlink:href="#DejaVuSans-6f" transform="translate(1285.316406 0)"/>
     <use xlink:href="#DejaVuSans-6e" transform="translate(1346.498047 0)"/>
     <use xlink:href="#DejaVuSans-20" transform="translate(1409.876953 0)"/>
     <use xlink:href="#DejaVuSans-44" transform="translate(1441.664062 0)"/>
     <use xlink:href="#DejaVuSans-45" transform="translate(1518.666016 0)"/>
     <use xlink:href="#DejaVuSans-41" transform="translate(1581.849609 0)"/>
     <use xlink:href="#DejaVuSans-50" transform="translate(1650.257812 0)"/>
     <use xlink:href="#DejaVuSans-20" transform="translate(1710.560547 0)"/>
     <use xlink:href="#DejaVuSans-28" transform="translate(1742.347656 0)"/>
     <use xlink:href="#DejaVuSans-73" transform="translate(1781.361328 0)"/>
     <use xlink:href="#DejaVuSans-30" transform="translate(1833.460938 0)"/>
     <use xlink:href="#DejaVuSans-31" transform="translate(1897.083984 0)"/>
     <use xlink:href="#DejaVuSans-2d" transform="translate(1960.707031 0)"/>
     <use xlink:href="#DejaVuSans-73" transform="translate(1996.791016 0)"/>
     <use xlink:href="#DejaVuSans-33" transform="translate(2048.890625 0)"/>
     <use xlink:href="#DejaVuSans-32" transform="translate(2112.513672 0)"/>
     <use xlink:href="#DejaVuSans-29" transform="translate(2176.136719 0)"/>
    </g>
   </g>
   <g id="legend_1">
    <g id="line2d_51">
     <path d="M 67.157813 41.031 
L 80.357813 41.031 
L 93.557813 41.031 
" style="fill: none; stroke: #1f77b4; stroke-width: 2.3; stroke-linecap: square"/>
     <g>
      <use xlink:href="#mfefec18c13" x="80.357813" y="41.031" style="fill: #1f77b4; stroke: #1f77b4"/>
     </g>
    </g>
    <g id="text_42">
     <!-- Valence (final) -->
     <g transform="translate(103.157813 45.231) scale(0.12 -0.12)">
      <defs>
       <path id="DejaVuSans-56" d="M 1831 0 
L 50 4666 
L 709 4666 
L 2188 738 
L 3669 4666 
L 4325 4666 
L 2547 0 
L 1831 0 
z
" transform="scale(0.015625)"/>
       <path id="DejaVuSans-66" d="M 2375 4863 
L 2375 4384 
L 1825 4384 
Q 1516 4384 1395 4259 
Q 1275 4134 1275 3809 
L 1275 3500 
L 2222 3500 
L 2222 3053 
L 1275 3053 
L 1275 0 
L 697 0 
L 697 3053 
L 147 3053 
L 147 3500 
L 697 3500 
L 697 3744 
Q 697 4328 969 4595 
Q 1241 4863 1831 4863 
L 2375 4863 
z
" transform="scale(0.015625)"/>
      </defs>
      <use xlink:href="#DejaVuSans-56"/>
      <use xlink:href="#DejaVuSans-61" transform="translate(60.658203 0)"/>
      <use xlink:href="#DejaVuSans-6c" transform="translate(121.9375 0)"/>
      <use xlink:href="#DejaVuSans-65" transform="translate(149.720703 0)"/>
      <use xlink:href="#DejaVuSans-6e" transform="translate(211.244141 0)"/>
      <use xlink:href="#DejaVuSans-63" transform="translate(274.623047 0)"/>
      <use xlink:href="#DejaVuSans-65" transform="translate(329.603516 0)"/>
      <use xlink:href="#DejaVuSans-20" transform="translate(391.126953 0)"/>
      <use xlink:href="#DejaVuSans-28" transform="translate(422.914062 0)"/>
      <use xlink:href="#DejaVuSans-66" transform="translate(461.927734 0)"/>
      <use xlink:href="#DejaVuSans-69" transform="translate(497.132812 0)"/>
      <use xlink:href="#DejaVuSans-6e" transform="translate(524.916016 0)"/>
      <use xlink:href="#DejaVuSans-61" transform="translate(588.294922 0)"/>
      <use xlink:href="#DejaVuSans-6c" transform="translate(649.574219 0)"/>
      <use xlink:href="#DejaVuSans-29" transform="translate(677.357422 0)"/>
     </g>
    </g>
    <g id="line2d_52">
     <path d="M 67.157813 56.84475 
L 80.357813 56.84475 
L 93.557813 56.84475 
" style="fill: none; stroke: #d62728; stroke-width: 2.3; stroke-linecap: square"/>
     <g>
      <use xlink:href="#md719ac6f5c" x="80.357813" y="56.84475" style="fill: #d62728; stroke: #d62728; stroke-linejoin: miter"/>
     </g>
    </g>
    <g id="text_43">
     <!-- Arousal (final) -->
     <g transform="translate(103.157813 61.04475) scale(0.12 -0.12)">
      <use xlink:href="#DejaVuSans-41"/>
      <use xlink:href="#DejaVuSans-72" transform="translate(68.408203 0)"/>
      <use xlink:href="#DejaVuSans-6f" transform="translate(107.271484 0)"/>
      <use xlink:href="#DejaVuSans-75" transform="translate(168.453125 0)"/>
      <use xlink:href="#DejaVuSans-73" transform="translate(231.832031 0)"/>
      <use xlink:href="#DejaVuSans-61" transform="translate(283.931641 0)"/>
      <use xlink:href="#DejaVuSans-6c" transform="translate(345.210938 0)"/>
      <use xlink:href="#DejaVuSans-20" transform="translate(372.994141 0)"/>
      <use xlink:href="#DejaVuSans-28" transform="translate(404.78125 0)"/>
      <use xlink:href="#DejaVuSans-66" transform="translate(443.794922 0)"/>
      <use xlink:href="#DejaVuSans-69" transform="translate(479 0)"/>
      <use xlink:href="#DejaVuSans-6e" transform="translate(506.783203 0)"/>
      <use xlink:href="#DejaVuSans-61" transform="translate(570.162109 0)"/>
      <use xlink:href="#DejaVuSans-6c" transform="translate(631.441406 0)"/>
      <use xlink:href="#DejaVuSans-29" transform="translate(659.224609 0)"/>
     </g>
    </g>
   </g>
  </g>
  <g id="axes_2">
   <g id="line2d_53">
    <path d="M 664.342212 241.764875 
L 738.183252 241.764875 
" clip-path="url(#p1814f4e9c7)" style="fill: none; stroke-dasharray: 5.92,2.56; stroke-dashoffset: 0; stroke: #9ecae1; stroke-width: 1.6"/>
   </g>
   <g id="line2d_54">
    <path d="M 664.342212 254.247875 
L 738.183252 254.247875 
" clip-path="url(#p1814f4e9c7)" style="fill: none; stroke-dasharray: 10.24,2.56,1.6,2.56; stroke-dashoffset: 0; stroke: #3182bd; stroke-width: 1.6"/>
   </g>
   <g id="line2d_55">
    <path d="M 664.342212 269.358875 
L 738.183252 269.358875 
" clip-path="url(#p1814f4e9c7)" style="fill: none; stroke-dasharray: 5.92,2.56; stroke-dashoffset: 0; stroke: #fcae91; stroke-width: 1.6"/>
   </g>
   <g id="line2d_56">
    <path d="M 664.342212 282.498875 
L 738.183252 282.498875 
" clip-path="url(#p1814f4e9c7)" style="fill: none; stroke-dasharray: 10.24,2.56,1.6,2.56; stroke-dashoffset: 0; stroke: #e6550d; stroke-width: 1.6"/>
   </g>
   <g id="text_44">
    <!-- Mean accuracy (%) -->
    <g transform="translate(667.552692 234.16725) scale(0.125 -0.125)">
     <defs>
      <path id="DejaVuSans-Bold-4d" d="M 588 4666 
L 2119 4666 
L 3181 2169 
L 4250 4666 
L 5778 4666 
L 5778 0 
L 4641 0 
L 4641 3413 
L 3566 897 
L 2803 897 
L 1728 3413 
L 1728 0 
L 588 0 
L 588 4666 
z
" transform="scale(0.015625)"/>
      <path id="DejaVuSans-Bold-65" d="M 4031 1759 
L 4031 1441 
L 1416 1441 
Q 1456 1047 1700 850 
Q 1944 653 2381 653 
Q 2734 653 3104 758 
Q 3475 863 3866 1075 
L 3866 213 
Q 3469 63 3072 -14 
Q 2675 -91 2278 -91 
Q 1328 -91 801 392 
Q 275 875 275 1747 
Q 275 2603 792 3093 
Q 1309 3584 2216 3584 
Q 3041 3584 3536 3087 
Q 4031 2591 4031 1759 
z
M 2881 2131 
Q 2881 2450 2695 2645 
Q 2509 2841 2209 2841 
Q 1884 2841 1681 2658 
Q 1478 2475 1428 2131 
L 2881 2131 
z
" transform="scale(0.015625)"/>
      <path id="DejaVuSans-Bold-61" d="M 2106 1575 
Q 1756 1575 1579 1456 
Q 1403 1338 1403 1106 
Q 1403 894 1545 773 
Q 1688 653 1941 653 
Q 2256 653 2472 879 
Q 2688 1106 2688 1447 
L 2688 1575 
L 2106 1575 
z
M 3816 1997 
L 3816 0 
L 2688 0 
L 2688 519 
Q 2463 200 2181 54 
Q 1900 -91 1497 -91 
Q 953 -91 614 226 
Q 275 544 275 1050 
Q 275 1666 698 1953 
Q 1122 2241 2028 2241 
L 2688 2241 
L 2688 2328 
Q 2688 2594 2478 2717 
Q 2269 2841 1825 2841 
Q 1466 2841 1156 2769 
Q 847 2697 581 2553 
L 581 3406 
Q 941 3494 1303 3539 
Q 1666 3584 2028 3584 
Q 2975 3584 3395 3211 
Q 3816 2838 3816 1997 
z
" transform="scale(0.015625)"/>
      <path id="DejaVuSans-Bold-6e" d="M 4056 2131 
L 4056 0 
L 2931 0 
L 2931 347 
L 2931 1631 
Q 2931 2084 2911 2256 
Q 2891 2428 2841 2509 
Q 2775 2619 2662 2680 
Q 2550 2741 2406 2741 
Q 2056 2741 1856 2470 
Q 1656 2200 1656 1722 
L 1656 0 
L 538 0 
L 538 3500 
L 1656 3500 
L 1656 2988 
Q 1909 3294 2193 3439 
Q 2478 3584 2822 3584 
Q 3428 3584 3742 3212 
Q 4056 2841 4056 2131 
z
" transform="scale(0.015625)"/>
      <path id="DejaVuSans-Bold-20" transform="scale(0.015625)"/>
      <path id="DejaVuSans-Bold-63" d="M 3366 3391 
L 3366 2478 
Q 3138 2634 2908 2709 
Q 2678 2784 2431 2784 
Q 1963 2784 1702 2511 
Q 1441 2238 1441 1747 
Q 1441 1256 1702 982 
Q 1963 709 2431 709 
Q 2694 709 2930 787 
Q 3166 866 3366 1019 
L 3366 103 
Q 3103 6 2833 -42 
Q 2563 -91 2291 -91 
Q 1344 -91 809 395 
Q 275 881 275 1747 
Q 275 2613 809 3098 
Q 1344 3584 2291 3584 
Q 2566 3584 2833 3536 
Q 3100 3488 3366 3391 
z
" transform="scale(0.015625)"/>
      <path id="DejaVuSans-Bold-75" d="M 500 1363 
L 500 3500 
L 1625 3500 
L 1625 3150 
Q 1625 2866 1622 2436 
Q 1619 2006 1619 1863 
Q 1619 1441 1641 1255 
Q 1663 1069 1716 984 
Q 1784 875 1895 815 
Q 2006 756 2150 756 
Q 2500 756 2700 1025 
Q 2900 1294 2900 1772 
L 2900 3500 
L 4019 3500 
L 4019 0 
L 2900 0 
L 2900 506 
Q 2647 200 2364 54 
Q 2081 -91 1741 -91 
Q 1134 -91 817 281 
Q 500 653 500 1363 
z
" transform="scale(0.015625)"/>
      <path id="DejaVuSans-Bold-72" d="M 3138 2547 
Q 2991 2616 2845 2648 
Q 2700 2681 2553 2681 
Q 2122 2681 1889 2404 
Q 1656 2128 1656 1613 
L 1656 0 
L 538 0 
L 538 3500 
L 1656 3500 
L 1656 2925 
Q 1872 3269 2151 3426 
Q 2431 3584 2822 3584 
Q 2878 3584 2943 3579 
Q 3009 3575 3134 3559 
L 3138 2547 
z
" transform="scale(0.015625)"/>
      <path id="DejaVuSans-Bold-79" d="M 78 3500 
L 1197 3500 
L 2138 1125 
L 2938 3500 
L 4056 3500 
L 2584 -331 
Q 2363 -916 2067 -1148 
Q 1772 -1381 1288 -1381 
L 641 -1381 
L 641 -647 
L 991 -647 
Q 1275 -647 1404 -556 
Q 1534 -466 1606 -231 
L 1638 -134 
L 78 3500 
z
" transform="scale(0.015625)"/>
      <path id="DejaVuSans-Bold-28" d="M 2413 -844 
L 1484 -844 
Q 1006 -72 778 623 
Q 550 1319 550 2003 
Q 550 2688 779 3389 
Q 1009 4091 1484 4856 
L 2413 4856 
Q 2013 4116 1813 3408 
Q 1613 2700 1613 2009 
Q 1613 1319 1811 609 
Q 2009 -100 2413 -844 
z
" transform="scale(0.015625)"/>
      <path id="DejaVuSans-Bold-25" d="M 4959 1925 
Q 4738 1925 4616 1733 
Q 4494 1541 4494 1184 
Q 4494 825 4614 633 
Q 4734 441 4959 441 
Q 5184 441 5303 633 
Q 5422 825 5422 1184 
Q 5422 1541 5301 1733 
Q 5181 1925 4959 1925 
z
M 4959 2450 
Q 5541 2450 5875 2112 
Q 6209 1775 6209 1184 
Q 6209 594 5875 251 
Q 5541 -91 4959 -91 
Q 4378 -91 4042 251 
Q 3706 594 3706 1184 
Q 3706 1772 4042 2111 
Q 4378 2450 4959 2450 
z
M 2094 -91 
L 1403 -91 
L 4319 4750 
L 5013 4750 
L 2094 -91 
z
M 1453 4750 
Q 2034 4750 2367 4411 
Q 2700 4072 2700 3481 
Q 2700 2891 2367 2550 
Q 2034 2209 1453 2209 
Q 872 2209 539 2550 
Q 206 2891 206 3481 
Q 206 4072 539 4411 
Q 872 4750 1453 4750 
z
M 1453 4225 
Q 1228 4225 1106 4031 
Q 984 3838 984 3481 
Q 984 3122 1106 2926 
Q 1228 2731 1453 2731 
Q 1678 2731 1798 2926 
Q 1919 3122 1919 3481 
Q 1919 3838 1797 4031 
Q 1675 4225 1453 4225 
z
" transform="scale(0.015625)"/>
      <path id="DejaVuSans-Bold-29" d="M 513 -844 
Q 913 -100 1113 609 
Q 1313 1319 1313 2009 
Q 1313 2700 1113 3408 
Q 913 4116 513 4856 
L 1441 4856 
Q 1916 4091 2145 3389 
Q 2375 2688 2375 2003 
Q 2375 1319 2147 623 
Q 1919 -72 1441 -844 
L 513 -844 
z
" transform="scale(0.015625)"/>
     </defs>
     <use xlink:href="#DejaVuSans-Bold-4d"/>
     <use xlink:href="#DejaVuSans-Bold-65" transform="translate(99.511719 0)"/>
     <use xlink:href="#DejaVuSans-Bold-61" transform="translate(167.333984 0)"/>
     <use xlink:href="#DejaVuSans-Bold-6e" transform="translate(234.814453 0)"/>
     <use xlink:href="#DejaVuSans-Bold-20" transform="translate(306.005859 0)"/>
     <use xlink:href="#DejaVuSans-Bold-61" transform="translate(340.820312 0)"/>
     <use xlink:href="#DejaVuSans-Bold-63" transform="translate(408.300781 0)"/>
     <use xlink:href="#DejaVuSans-Bold-63" transform="translate(467.578125 0)"/>
     <use xlink:href="#DejaVuSans-Bold-75" transform="translate(526.855469 0)"/>
     <use xlink:href="#DejaVuSans-Bold-72" transform="translate(598.046875 0)"/>
     <use xlink:href="#DejaVuSans-Bold-61" transform="translate(647.363281 0)"/>
     <use xlink:href="#DejaVuSans-Bold-63" transform="translate(714.84375 0)"/>
     <use xlink:href="#DejaVuSans-Bold-79" transform="translate(774.121094 0)"/>
     <use xlink:href="#DejaVuSans-Bold-20" transform="translate(839.306641 0)"/>
     <use xlink:href="#DejaVuSans-Bold-28" transform="translate(874.121094 0)"/>
     <use xlink:href="#DejaVuSans-Bold-25" transform="translate(919.824219 0)"/>
     <use xlink:href="#DejaVuSans-Bold-29" transform="translate(1020.019531 0)"/>
    </g>
   </g>
   <g id="text_45">
    <!-- Paper V mean: 92.74% -->
    <g transform="translate(757.446132 244.689812) scale(0.106 -0.106)">
     <defs>
      <path id="DejaVuSans-6d" d="M 3328 2828 
Q 3544 3216 3844 3400 
Q 4144 3584 4550 3584 
Q 5097 3584 5394 3201 
Q 5691 2819 5691 2113 
L 5691 0 
L 5113 0 
L 5113 2094 
Q 5113 2597 4934 2840 
Q 4756 3084 4391 3084 
Q 3944 3084 3684 2787 
Q 3425 2491 3425 1978 
L 3425 0 
L 2847 0 
L 2847 2094 
Q 2847 2600 2669 2842 
Q 2491 3084 2119 3084 
Q 1678 3084 1418 2786 
Q 1159 2488 1159 1978 
L 1159 0 
L 581 0 
L 581 3500 
L 1159 3500 
L 1159 2956 
Q 1356 3278 1631 3431 
Q 1906 3584 2284 3584 
Q 2666 3584 2933 3390 
Q 3200 3197 3328 2828 
z
" transform="scale(0.015625)"/>
      <path id="DejaVuSans-3a" d="M 750 794 
L 1409 794 
L 1409 0 
L 750 0 
L 750 794 
z
M 750 3309 
L 1409 3309 
L 1409 2516 
L 750 2516 
L 750 3309 
z
" transform="scale(0.015625)"/>
      <path id="DejaVuSans-2e" d="M 684 794 
L 1344 794 
L 1344 0 
L 684 0 
L 684 794 
z
" transform="scale(0.015625)"/>
     </defs>
     <use xlink:href="#DejaVuSans-50"/>
     <use xlink:href="#DejaVuSans-61" transform="translate(55.802734 0)"/>
     <use xlink:href="#DejaVuSans-70" transform="translate(117.082031 0)"/>
     <use xlink:href="#DejaVuSans-65" transform="translate(180.558594 0)"/>
     <use xlink:href="#DejaVuSans-72" transform="translate(242.082031 0)"/>
     <use xlink:href="#DejaVuSans-20" transform="translate(283.195312 0)"/>
     <use xlink:href="#DejaVuSans-56" transform="translate(314.982422 0)"/>
     <use xlink:href="#DejaVuSans-20" transform="translate(383.390625 0)"/>
     <use xlink:href="#DejaVuSans-6d" transform="translate(415.177734 0)"/>
     <use xlink:href="#DejaVuSans-65" transform="translate(512.589844 0)"/>
     <use xlink:href="#DejaVuSans-61" transform="translate(574.113281 0)"/>
     <use xlink:href="#DejaVuSans-6e" transform="translate(635.392578 0)"/>
     <use xlink:href="#DejaVuSans-3a" transform="translate(698.771484 0)"/>
     <use xlink:href="#DejaVuSans-20" transform="translate(732.462891 0)"/>
     <use xlink:href="#DejaVuSans-39" transform="translate(764.25 0)"/>
     <use xlink:href="#DejaVuSans-32" transform="translate(827.873047 0)"/>
     <use xlink:href="#DejaVuSans-2e" transform="translate(891.496094 0)"/>
     <use xlink:href="#DejaVuSans-37" transform="translate(923.283203 0)"/>
     <use xlink:href="#DejaVuSans-34" transform="translate(986.90625 0)"/>
     <use xlink:href="#DejaVuSans-25" transform="translate(1050.529297 0)"/>
    </g>
   </g>
   <g id="text_46">
    <!-- Reproduced V mean: 92.36% -->
    <g transform="translate(757.446132 257.172812) scale(0.106 -0.106)">
     <use xlink:href="#DejaVuSans-52"/>
     <use xlink:href="#DejaVuSans-65" transform="translate(64.982422 0)"/>
     <use xlink:href="#DejaVuSans-70" transform="translate(126.505859 0)"/>
     <use xlink:href="#DejaVuSans-72" transform="translate(189.982422 0)"/>
     <use xlink:href="#DejaVuSans-6f" transform="translate(228.845703 0)"/>
     <use xlink:href="#DejaVuSans-64" transform="translate(290.027344 0)"/>
     <use xlink:href="#DejaVuSans-75" transform="translate(353.503906 0)"/>
     <use xlink:href="#DejaVuSans-63" transform="translate(416.882812 0)"/>
     <use xlink:href="#DejaVuSans-65" transform="translate(471.863281 0)"/>
     <use xlink:href="#DejaVuSans-64" transform="translate(533.386719 0)"/>
     <use xlink:href="#DejaVuSans-20" transform="translate(596.863281 0)"/>
     <use xlink:href="#DejaVuSans-56" transform="translate(628.650391 0)"/>
     <use xlink:href="#DejaVuSans-20" transform="translate(697.058594 0)"/>
     <use xlink:href="#DejaVuSans-6d" transform="translate(728.845703 0)"/>
     <use xlink:href="#DejaVuSans-65" transform="translate(826.257812 0)"/>
     <use xlink:href="#DejaVuSans-61" transform="translate(887.78125 0)"/>
     <use xlink:href="#DejaVuSans-6e" transform="translate(949.060547 0)"/>
     <use xlink:href="#DejaVuSans-3a" transform="translate(1012.439453 0)"/>
     <use xlink:href="#DejaVuSans-20" transform="translate(1046.130859 0)"/>
     <use xlink:href="#DejaVuSans-39" transform="translate(1077.917969 0)"/>
     <use xlink:href="#DejaVuSans-32" transform="translate(1141.541016 0)"/>
     <use xlink:href="#DejaVuSans-2e" transform="translate(1205.164062 0)"/>
     <use xlink:href="#DejaVuSans-33" transform="translate(1236.951172 0)"/>
     <use xlink:href="#DejaVuSans-36" transform="translate(1300.574219 0)"/>
     <use xlink:href="#DejaVuSans-25" transform="translate(1364.197266 0)"/>
    </g>
   </g>
   <g id="text_47">
    <!-- Paper A mean: 93.14% -->
    <g transform="translate(757.446132 272.283812) scale(0.106 -0.106)">
     <use xlink:href="#DejaVuSans-50"/>
     <use xlink:href="#DejaVuSans-61" transform="translate(55.802734 0)"/>
     <use xlink:href="#DejaVuSans-70" transform="translate(117.082031 0)"/>
     <use xlink:href="#DejaVuSans-65" transform="translate(180.558594 0)"/>
     <use xlink:href="#DejaVuSans-72" transform="translate(242.082031 0)"/>
     <use xlink:href="#DejaVuSans-20" transform="translate(283.195312 0)"/>
     <use xlink:href="#DejaVuSans-41" transform="translate(314.982422 0)"/>
     <use xlink:href="#DejaVuSans-20" transform="translate(383.390625 0)"/>
     <use xlink:href="#DejaVuSans-6d" transform="translate(415.177734 0)"/>
     <use xlink:href="#DejaVuSans-65" transform="translate(512.589844 0)"/>
     <use xlink:href="#DejaVuSans-61" transform="translate(574.113281 0)"/>
     <use xlink:href="#DejaVuSans-6e" transform="translate(635.392578 0)"/>
     <use xlink:href="#DejaVuSans-3a" transform="translate(698.771484 0)"/>
     <use xlink:href="#DejaVuSans-20" transform="translate(732.462891 0)"/>
     <use xlink:href="#DejaVuSans-39" transform="translate(764.25 0)"/>
     <use xlink:href="#DejaVuSans-33" transform="translate(827.873047 0)"/>
     <use xlink:href="#DejaVuSans-2e" transform="translate(891.496094 0)"/>
     <use xlink:href="#DejaVuSans-31" transform="translate(923.283203 0)"/>
     <use xlink:href="#DejaVuSans-34" transform="translate(986.90625 0)"/>
     <use xlink:href="#DejaVuSans-25" transform="translate(1050.529297 0)"/>
    </g>
   </g>
   <g id="text_48">
    <!-- Reproduced A mean: 92.57% -->
    <g transform="translate(757.446132 285.423812) scale(0.106 -0.106)">
     <use xlink:href="#DejaVuSans-52"/>
     <use xlink:href="#DejaVuSans-65" transform="translate(64.982422 0)"/>
     <use xlink:href="#DejaVuSans-70" transform="translate(126.505859 0)"/>
     <use xlink:href="#DejaVuSans-72" transform="translate(189.982422 0)"/>
     <use xlink:href="#DejaVuSans-6f" transform="translate(228.845703 0)"/>
     <use xlink:href="#DejaVuSans-64" transform="translate(290.027344 0)"/>
     <use xlink:href="#DejaVuSans-75" transform="translate(353.503906 0)"/>
     <use xlink:href="#DejaVuSans-63" transform="translate(416.882812 0)"/>
     <use xlink:href="#DejaVuSans-65" transform="translate(471.863281 0)"/>
     <use xlink:href="#DejaVuSans-64" transform="translate(533.386719 0)"/>
     <use xlink:href="#DejaVuSans-20" transform="translate(596.863281 0)"/>
     <use xlink:href="#DejaVuSans-41" transform="translate(628.650391 0)"/>
     <use xlink:href="#DejaVuSans-20" transform="translate(697.058594 0)"/>
     <use xlink:href="#DejaVuSans-6d" transform="translate(728.845703 0)"/>
     <use xlink:href="#DejaVuSans-65" transform="translate(826.257812 0)"/>
     <use xlink:href="#DejaVuSans-61" transform="translate(887.78125 0)"/>
     <use xlink:href="#DejaVuSans-6e" transform="translate(949.060547 0)"/>
     <use xlink:href="#DejaVuSans-3a" transform="translate(1012.439453 0)"/>
     <use xlink:href="#DejaVuSans-20" transform="translate(1046.130859 0)"/>
     <use xlink:href="#DejaVuSans-39" transform="translate(1077.917969 0)"/>
     <use xlink:href="#DejaVuSans-32" transform="translate(1141.541016 0)"/>
     <use xlink:href="#DejaVuSans-2e" transform="translate(1205.164062 0)"/>
     <use xlink:href="#DejaVuSans-35" transform="translate(1236.951172 0)"/>
     <use xlink:href="#DejaVuSans-37" transform="translate(1300.574219 0)"/>
     <use xlink:href="#DejaVuSans-25" transform="translate(1364.197266 0)"/>
    </g>
   </g>
  </g>
 </g>
 <defs>
  <clipPath id="peb764c082c">
   <rect x="57.557813" y="34.396875" width="917.28" height="262.8"/>
  </clipPath>
  <clipPath id="p1814f4e9c7">
   <rect x="648.289812" y="225.996875" width="321.048" height="65.7"/>
  </clipPath>
 </defs>
</svg>
