<?xml version="1.0" encoding="utf-8" standalone="no"?>
<!DOCTYPE svg PUBLIC "-//W3C//DTD SVG 1.1//EN"
  "http://www.w3.org/Graphics/SVG/1.1/DTD/svg11.dtd">
<svg xmlns:xlink="http://www.w3.org/1999/xlink" width="947.342187pt" height="280.98175pt" viewBox="0 0 947.342187 280.98175" xmlns="http://www.w3.org/2000/svg" version="1.1">
 <metadata>
  <rdf:RDF xmlns:dc="http://purl.org/dc/elements/1.1/" xmlns:cc="http://creativecommons.org/ns#" xmlns:rdf="http://www.w3.org/1999/02/22-rdf-syntax-ns#">
   <cc:Work>
    <dc:type rdf:resource="http://purl.org/dc/dcmitype/StillImage"/>
    <dc:date>2026-05-31T15:53:05.184390</dc:date>
    <dc:format>image/svg+xml</dc:format>
    <dc:creator>
     <cc:Agent>
      <dc:title>Matplotlib v3.10.9, https://matplotlib.org/</dc:title>
     </cc:Agent>
    </dc:creator>
   </cc:Work>
  </rdf:RDF>
 </metadata>
 <defs>
  <style type="text/css">*{stroke-linejoin: round; stroke-linecap: butt}</style>
 </defs>
 <g id="figure_1">
  <g id="patch_1">
   <path d="M 0 280.98175 
L 947.342187 280.98175 
L 947.342187 0 
L 0 0 
z
" style="fill: #ffffff"/>
  </g>
  <g id="axes_1">
   <g id="patch_2">
    <path d="M 55.622188 255.168 
L 454.05462 255.168 
L 454.05462 61.632 
L 55.622188 61.632 
z
" style="fill: #ffffff"/>
   </g>
   <g id="patch_3">
    <path d="M 73.732753 706.752 
L 108.785459 706.752 
L 108.785459 109.108804 
L 73.732753 109.108804 
z
" clip-path="url(#pc61bd6f4ec)" style="fill: #4c78a8"/>
   </g>
   <g id="patch_4">
    <path d="M 171.101382 706.752 
L 206.154089 706.752 
L 206.154089 104.673604 
L 171.101382 104.673604 
z
" clip-path="url(#pc61bd6f4ec)" style="fill: #4c78a8"/>
   </g>
   <g id="patch_5">
    <path d="M 268.470012 706.752 
L 303.522719 706.752 
L 303.522719 125.337603 
L 268.470012 125.337603 
z
" clip-path="url(#pc61bd6f4ec)" style="fill: #4c78a8"/>
   </g>
   <g id="patch_6">
    <path d="M 365.838641 706.752 
L 400.891348 706.752 
L 400.891348 126.043204 
L 365.838641 126.043204 
z
" clip-path="url(#pc61bd6f4ec)" style="fill: #4c78a8"/>
   </g>
   <g id="patch_7">
    <path d="M 108.785459 706.752 
L 143.838166 706.752 
L 143.838166 110.923204 
L 108.785459 110.923204 
z
" clip-path="url(#pc61bd6f4ec)" style="fill: #f58518"/>
   </g>
   <g id="patch_8">
    <path d="M 206.154089 706.752 
L 241.206796 706.752 
L 241.206796 108.403203 
L 206.154089 108.403203 
z
" clip-path="url(#pc61bd6f4ec)" style="fill: #f58518"/>
   </g>
   <g id="patch_9">
    <path d="M 303.522719 706.752 
L 338.575425 706.752 
L 338.575425 124.934402 
L 303.522719 124.934402 
z
" clip-path="url(#pc61bd6f4ec)" style="fill: #f58518"/>
   </g>
   <g id="patch_10">
    <path d="M 400.891348 706.752 
L 435.944055 706.752 
L 435.944055 128.664003 
L 400.891348 128.664003 
z
" clip-path="url(#pc61bd6f4ec)" style="fill: #f58518"/>
   </g>
   <g id="matplotlib.axis_1">
    <g id="xtick_1">
     <g id="line2d_1">
      <defs>
       <path id="me927984f56" d="M 0 0 
L 0 3.5 
" style="stroke: #000000; stroke-width: 0.8"/>
      </defs>
      <g>
       <use xlink:href="#me927984f56" x="108.785459" y="255.168" style="stroke: #000000; stroke-width: 0.8"/>
      </g>
     </g>
     <g id="text_1">
      <!-- Full -->
      <g transform="translate(98.528272 271.286125) scale(0.12 -0.12)">
       <defs>
        <path id="DejaVuSans-46" d="M 628 4666 
L 3309 4666 
L 3309 4134 
L 1259 4134 
L 1259 2759 
L 3109 2759 
L 3109 2228 
L 1259 2228 
L 1259 0 
L 628 0 
L 628 4666 
z
" transform="scale(0.015625)"/>
        <path id="DejaVuSans-75" d="M 544 1381 
L 544 3500 
L 1119 3500 
L 1119 1403 
Q 1119 906 1312 657 
Q 1506 409 1894 409 
Q 2359 409 2629 706 
Q 2900 1003 2900 1516 
L 2900 3500 
L 3475 3500 
L 3475 0 
L 2900 0 
L 2900 538 
Q 2691 219 2414 64 
Q 2138 -91 1772 -91 
Q 1169 -91 856 284 
Q 544 659 544 1381 
z
M 1991 3584 
L 1991 3584 
z
" transform="scale(0.015625)"/>
        <path id="DejaVuSans-6c" d="M 603 4863 
L 1178 4863 
L 1178 0 
L 603 0 
L 603 4863 
z
" transform="scale(0.015625)"/>
       </defs>
       <use xlink:href="#DejaVuSans-46"/>
       <use xlink:href="#DejaVuSans-75" transform="translate(52.019531 0)"/>
       <use xlink:href="#DejaVuSans-6c" transform="translate(115.398438 0)"/>
       <use xlink:href="#DejaVuSans-6c" transform="translate(143.181641 0)"/>
      </g>
     </g>
    </g>
    <g id="xtick_2">
     <g id="line2d_2">
      <g>
       <use xlink:href="#me927984f56" x="206.154089" y="255.168" style="stroke: #000000; stroke-width: 0.8"/>
      </g>
     </g>
     <g id="text_2">
      <!-- w/o self -->
      <g transform="translate(183.051276 271.286125) scale(0.12 -0.12)">
       <defs>
        <path id="DejaVuSans-77" d="M 269 3500 
L 844 3500 
L 1563 769 
L 2278 3500 
L 2956 3500 
L 3675 769 
L 4391 3500 
L 4966 3500 
L 4050 0 
L 3372 0 
L 2619 2869 
L 1863 0 
L 1184 0 
L 269 3500 
z
" transform="scale(0.015625)"/>
        <path id="DejaVuSans-2f" d="M 1625 4666 
L 2156 4666 
L 531 -594 
L 0 -594 
L 1625 4666 
z
" transform="scale(0.015625)"/>
        <path id="DejaVuSans-6f" d="M 1959 3097 
Q 1497 3097 1228 2736 
Q 959 2375 959 1747 
Q 959 1119 1226 758 
Q 1494 397 1959 397 
Q 2419 397 2687 759 
Q 2956 1122 2956 1747 
Q 2956 2369 2687 2733 
Q 2419 3097 1959 3097 
z
M 1959 3584 
Q 2709 3584 3137 3096 
Q 3566 2609 3566 1747 
Q 3566 888 3137 398 
Q 2709 -91 1959 -91 
Q 1206 -91 779 398 
Q 353 888 353 1747 
Q 353 2609 779 3096 
Q 1206 3584 1959 3584 
z
" transform="scale(0.015625)"/>
        <path id="DejaVuSans-20" transform="scale(0.015625)"/>
        <path id="DejaVuSans-73" d="M 2834 3397 
L 2834 2853 
Q 2591 2978 2328 3040 
Q 2066 3103 1784 3103 
Q 1356 3103 1142 2972 
Q 928 2841 928 2578 
Q 928 2378 1081 2264 
Q 1234 2150 1697 2047 
L 1894 2003 
Q 2506 1872 2764 1633 
Q 3022 1394 3022 966 
Q 3022 478 2636 193 
Q 2250 -91 1575 -91 
Q 1294 -91 989 -36 
Q 684 19 347 128 
L 347 722 
Q 666 556 975 473 
Q 1284 391 1588 391 
Q 1994 391 2212 530 
Q 2431 669 2431 922 
Q 2431 1156 2273 1281 
Q 2116 1406 1581 1522 
L 1381 1569 
Q 847 1681 609 1914 
Q 372 2147 372 2553 
Q 372 3047 722 3315 
Q 1072 3584 1716 3584 
Q 2034 3584 2315 3537 
Q 2597 3491 2834 3397 
z
" transform="scale(0.015625)"/>
        <path id="DejaVuSans-65" d="M 3597 1894 
L 3597 1613 
L 953 1613 
Q 991 1019 1311 708 
Q 1631 397 2203 397 
Q 2534 397 2845 478 
Q 3156 559 3463 722 
L 3463 178 
Q 3153 47 2828 -22 
Q 2503 -91 2169 -91 
Q 1331 -91 842 396 
Q 353 884 353 1716 
Q 353 2575 817 3079 
Q 1281 3584 2069 3584 
Q 2775 3584 3186 3129 
Q 3597 2675 3597 1894 
z
M 3022 2063 
Q 3016 2534 2758 2815 
Q 2500 3097 2075 3097 
Q 1594 3097 1305 2825 
Q 1016 2553 972 2059 
L 3022 2063 
z
" transform="scale(0.015625)"/>
        <path id="DejaVuSans-66" d="M 2375 4863 
L 2375 4384 
L 1825 4384 
Q 1516 4384 1395 4259 
Q 1275 4134 1275 3809 
L 1275 3500 
L 2222 3500 
L 2222 3053 
L 1275 3053 
L 1275 0 
L 697 0 
L 697 3053 
L 147 3053 
L 147 3500 
L 697 3500 
L 697 3744 
Q 697 4328 969 4595 
Q 1241 4863 1831 4863 
L 2375 4863 
z
" transform="scale(0.015625)"/>
       </defs>
       <use xlink:href="#DejaVuSans-77"/>
       <use xlink:href="#DejaVuSans-2f" transform="translate(81.787109 0)"/>
       <use xlink:href="#DejaVuSans-6f" transform="translate(115.478516 0)"/>
       <use xlink:href="#DejaVuSans-20" transform="translate(176.660156 0)"/>
       <use xlink:href="#DejaVuSans-73" transform="translate(208.447266 0)"/>
       <use xlink:href="#DejaVuSans-65" transform="translate(260.546875 0)"/>
       <use xlink:href="#DejaVuSans-6c" transform="translate(322.070312 0)"/>
       <use xlink:href="#DejaVuSans-66" transform="translate(349.853516 0)"/>
      </g>
     </g>
    </g>
    <g id="xtick_3">
     <g id="line2d_3">
      <g>
       <use xlink:href="#me927984f56" x="303.522719" y="255.168" style="stroke: #000000; stroke-width: 0.8"/>
      </g>
     </g>
     <g id="text_3">
      <!-- w/o channel -->
      <g transform="translate(267.274281 271.286125) scale(0.12 -0.12)">
       <defs>
        <path id="DejaVuSans-63" d="M 3122 3366 
L 3122 2828 
Q 2878 2963 2633 3030 
Q 2388 3097 2138 3097 
Q 1578 3097 1268 2742 
Q 959 2388 959 1747 
Q 959 1106 1268 751 
Q 1578 397 2138 397 
Q 2388 397 2633 464 
Q 2878 531 3122 666 
L 3122 134 
Q 2881 22 2623 -34 
Q 2366 -91 2075 -91 
Q 1284 -91 818 406 
Q 353 903 353 1747 
Q 353 2603 823 3093 
Q 1294 3584 2113 3584 
Q 2378 3584 2631 3529 
Q 2884 3475 3122 3366 
z
" transform="scale(0.015625)"/>
        <path id="DejaVuSans-68" d="M 3513 2113 
L 3513 0 
L 2938 0 
L 2938 2094 
Q 2938 2591 2744 2837 
Q 2550 3084 2163 3084 
Q 1697 3084 1428 2787 
Q 1159 2491 1159 1978 
L 1159 0 
L 581 0 
L 581 4863 
L 1159 4863 
L 1159 2956 
Q 1366 3272 1645 3428 
Q 1925 3584 2291 3584 
Q 2894 3584 3203 3211 
Q 3513 2838 3513 2113 
z
" transform="scale(0.015625)"/>
        <path id="DejaVuSans-61" d="M 2194 1759 
Q 1497 1759 1228 1600 
Q 959 1441 959 1056 
Q 959 750 1161 570 
Q 1363 391 1709 391 
Q 2188 391 2477 730 
Q 2766 1069 2766 1631 
L 2766 1759 
L 2194 1759 
z
M 3341 1997 
L 3341 0 
L 2766 0 
L 2766 531 
Q 2569 213 2275 61 
Q 1981 -91 1556 -91 
Q 1019 -91 701 211 
Q 384 513 384 1019 
Q 384 1609 779 1909 
Q 1175 2209 1959 2209 
L 2766 2209 
L 2766 2266 
Q 2766 2663 2505 2880 
Q 2244 3097 1772 3097 
Q 1472 3097 1187 3025 
Q 903 2953 641 2809 
L 641 3341 
Q 956 3463 1253 3523 
Q 1550 3584 1831 3584 
Q 2591 3584 2966 3190 
Q 3341 2797 3341 1997 
z
" transform="scale(0.015625)"/>
        <path id="DejaVuSans-6e" d="M 3513 2113 
L 3513 0 
L 2938 0 
L 2938 2094 
Q 2938 2591 2744 2837 
Q 2550 3084 2163 3084 
Q 1697 3084 1428 2787 
Q 1159 2491 1159 1978 
L 1159 0 
L 581 0 
L 581 3500 
L 1159 3500 
L 1159 2956 
Q 1366 3272 1645 3428 
Q 1925 3584 2291 3584 
Q 2894 3584 3203 3211 
Q 3513 2838 3513 2113 
z
" transform="scale(0.015625)"/>
       </defs>
       <use xlink:href="#DejaVuSans-77"/>
       <use xlink:href="#DejaVuSans-2f" transform="translate(81.787109 0)"/>
       <use xlink:href="#DejaVuSans-6f" transform="translate(115.478516 0)"/>
       <use xlink:href="#DejaVuSans-20" transform="translate(176.660156 0)"/>
       <use xlink:href="#DejaVuSans-63" transform="translate(208.447266 0)"/>
       <use xlink:href="#DejaVuSans-68" transform="translate(263.427734 0)"/>
       <use xlink:href="#DejaVuSans-61" transform="translate(326.806641 0)"/>
       <use xlink:href="#DejaVuSans-6e" transform="translate(388.085938 0)"/>
       <use xlink:href="#DejaVuSans-6e" transform="translate(451.464844 0)"/>
       <use xlink:href="#DejaVuSans-65" transform="translate(514.84375 0)"/>
       <use xlink:href="#DejaVuSans-6c" transform="translate(576.367188 0)"/>
      </g>
     </g>
    </g>
    <g id="xtick_4">
     <g id="line2d_4">
      <g>
       <use xlink:href="#me927984f56" x="400.891348" y="255.168" style="stroke: #000000; stroke-width: 0.8"/>
      </g>
     </g>
     <g id="text_4">
      <!-- w/o both -->
      <g transform="translate(374.750098 271.286125) scale(0.12 -0.12)">
       <defs>
        <path id="DejaVuSans-62" d="M 3116 1747 
Q 3116 2381 2855 2742 
Q 2594 3103 2138 3103 
Q 1681 3103 1420 2742 
Q 1159 2381 1159 1747 
Q 1159 1113 1420 752 
Q 1681 391 2138 391 
Q 2594 391 2855 752 
Q 3116 1113 3116 1747 
z
M 1159 2969 
Q 1341 3281 1617 3432 
Q 1894 3584 2278 3584 
Q 2916 3584 3314 3078 
Q 3713 2572 3713 1747 
Q 3713 922 3314 415 
Q 2916 -91 2278 -91 
Q 1894 -91 1617 61 
Q 1341 213 1159 525 
L 1159 0 
L 581 0 
L 581 4863 
L 1159 4863 
L 1159 2969 
z
" transform="scale(0.015625)"/>
        <path id="DejaVuSans-74" d="M 1172 4494 
L 1172 3500 
L 2356 3500 
L 2356 3053 
L 1172 3053 
L 1172 1153 
Q 1172 725 1289 603 
Q 1406 481 1766 481 
L 2356 481 
L 2356 0 
L 1766 0 
Q 1100 0 847 248 
Q 594 497 594 1153 
L 594 3053 
L 172 3053 
L 172 3500 
L 594 3500 
L 594 4494 
L 1172 4494 
z
" transform="scale(0.015625)"/>
       </defs>
       <use xlink:href="#DejaVuSans-77"/>
       <use xlink:href="#DejaVuSans-2f" transform="translate(81.787109 0)"/>
       <use xlink:href="#DejaVuSans-6f" transform="translate(115.478516 0)"/>
       <use xlink:href="#DejaVuSans-20" transform="translate(176.660156 0)"/>
       <use xlink:href="#DejaVuSans-62" transform="translate(208.447266 0)"/>
       <use xlink:href="#DejaVuSans-6f" transform="translate(271.923828 0)"/>
       <use xlink:href="#DejaVuSans-74" transform="translate(333.105469 0)"/>
       <use xlink:href="#DejaVuSans-68" transform="translate(372.314453 0)"/>
      </g>
     </g>
    </g>
   </g>
   <g id="matplotlib.axis_2">
    <g id="ytick_1">
     <g id="line2d_5">
      <path d="M 55.622188 255.168 
L 454.05462 255.168 
" clip-path="url(#pc61bd6f4ec)" style="fill: none; stroke: #b0b0b0; stroke-opacity: 0.25; stroke-width: 0.8; stroke-linecap: square"/>
     </g>
     <g id="line2d_6">
      <defs>
       <path id="m8fab2815cd" d="M 0 0 
L -3.5 0 
" style="stroke: #000000; stroke-width: 0.8"/>
      </defs>
      <g>
       <use xlink:href="#m8fab2815cd" x="55.622188" y="255.168" style="stroke: #000000; stroke-width: 0.8"/>
      </g>
     </g>
     <g id="text_5">
      <!-- 70 -->
      <g transform="translate(33.352187 259.727063) scale(0.12 -0.12)">
       <defs>
        <path id="DejaVuSans-37" d="M 525 4666 
L 3525 4666 
L 3525 4397 
L 1831 0 
L 1172 0 
L 2766 4134 
L 525 4134 
L 525 4666 
z
" transform="scale(0.015625)"/>
        <path id="DejaVuSans-30" d="M 2034 4250 
Q 1547 4250 1301 3770 
Q 1056 3291 1056 2328 
Q 1056 1369 1301 889 
Q 1547 409 2034 409 
Q 2525 409 2770 889 
Q 3016 1369 3016 2328 
Q 3016 3291 2770 3770 
Q 2525 4250 2034 4250 
z
M 2034 4750 
Q 2819 4750 3233 4129 
Q 3647 3509 3647 2328 
Q 3647 1150 3233 529 
Q 2819 -91 2034 -91 
Q 1250 -91 836 529 
Q 422 1150 422 2328 
Q 422 3509 836 4129 
Q 1250 4750 2034 4750 
z
" transform="scale(0.015625)"/>
       </defs>
       <use xlink:href="#DejaVuSans-37"/>
       <use xlink:href="#DejaVuSans-30" transform="translate(63.623047 0)"/>
      </g>
     </g>
    </g>
    <g id="ytick_2">
     <g id="line2d_7">
      <path d="M 55.622188 222.912 
L 454.05462 222.912 
" clip-path="url(#pc61bd6f4ec)" style="fill: none; stroke: #b0b0b0; stroke-opacity: 0.25; stroke-width: 0.8; stroke-linecap: square"/>
     </g>
     <g id="line2d_8">
      <g>
       <use xlink:href="#m8fab2815cd" x="55.622188" y="222.912" style="stroke: #000000; stroke-width: 0.8"/>
      </g>
     </g>
     <g id="text_6">
      <!-- 75 -->
      <g transform="translate(33.352187 227.471063) scale(0.12 -0.12)">
       <defs>
        <path id="DejaVuSans-35" d="M 691 4666 
L 3169 4666 
L 3169 4134 
L 1269 4134 
L 1269 2991 
Q 1406 3038 1543 3061 
Q 1681 3084 1819 3084 
Q 2600 3084 3056 2656 
Q 3513 2228 3513 1497 
Q 3513 744 3044 326 
Q 2575 -91 1722 -91 
Q 1428 -91 1123 -41 
Q 819 9 494 109 
L 494 744 
Q 775 591 1075 516 
Q 1375 441 1709 441 
Q 2250 441 2565 725 
Q 2881 1009 2881 1497 
Q 2881 1984 2565 2268 
Q 2250 2553 1709 2553 
Q 1456 2553 1204 2497 
Q 953 2441 691 2322 
L 691 4666 
z
" transform="scale(0.015625)"/>
       </defs>
       <use xlink:href="#DejaVuSans-37"/>
       <use xlink:href="#DejaVuSans-35" transform="translate(63.623047 0)"/>
      </g>
     </g>
    </g>
    <g id="ytick_3">
     <g id="line2d_9">
      <path d="M 55.622188 190.656 
L 454.05462 190.656 
" clip-path="url(#pc61bd6f4ec)" style="fill: none; stroke: #b0b0b0; stroke-opacity: 0.25; stroke-width: 0.8; stroke-linecap: square"/>
     </g>
     <g id="line2d_10">
      <g>
       <use xlink:href="#m8fab2815cd" x="55.622188" y="190.656" style="stroke: #000000; stroke-width: 0.8"/>
      </g>
     </g>
     <g id="text_7">
      <!-- 80 -->
      <g transform="translate(33.352187 195.215063) scale(0.12 -0.12)">
       <defs>
        <path id="DejaVuSans-38" d="M 2034 2216 
Q 1584 2216 1326 1975 
Q 1069 1734 1069 1313 
Q 1069 891 1326 650 
Q 1584 409 2034 409 
Q 2484 409 2743 651 
Q 3003 894 3003 1313 
Q 3003 1734 2745 1975 
Q 2488 2216 2034 2216 
z
M 1403 2484 
Q 997 2584 770 2862 
Q 544 3141 544 3541 
Q 544 4100 942 4425 
Q 1341 4750 2034 4750 
Q 2731 4750 3128 4425 
Q 3525 4100 3525 3541 
Q 3525 3141 3298 2862 
Q 3072 2584 2669 2484 
Q 3125 2378 3379 2068 
Q 3634 1759 3634 1313 
Q 3634 634 3220 271 
Q 2806 -91 2034 -91 
Q 1263 -91 848 271 
Q 434 634 434 1313 
Q 434 1759 690 2068 
Q 947 2378 1403 2484 
z
M 1172 3481 
Q 1172 3119 1398 2916 
Q 1625 2713 2034 2713 
Q 2441 2713 2670 2916 
Q 2900 3119 2900 3481 
Q 2900 3844 2670 4047 
Q 2441 4250 2034 4250 
Q 1625 4250 1398 4047 
Q 1172 3844 1172 3481 
z
" transform="scale(0.015625)"/>
       </defs>
       <use xlink:href="#DejaVuSans-38"/>
       <use xlink:href="#DejaVuSans-30" transform="translate(63.623047 0)"/>
      </g>
     </g>
    </g>
    <g id="ytick_4">
     <g id="line2d_11">
      <path d="M 55.622188 158.4 
L 454.05462 158.4 
" clip-path="url(#pc61bd6f4ec)" style="fill: none; stroke: #b0b0b0; stroke-opacity: 0.25; stroke-width: 0.8; stroke-linecap: square"/>
     </g>
     <g id="line2d_12">
      <g>
       <use xlink:href="#m8fab2815cd" x="55.622188" y="158.4" style="stroke: #000000; stroke-width: 0.8"/>
      </g>
     </g>
     <g id="text_8">
      <!-- 85 -->
      <g transform="translate(33.352187 162.959063) scale(0.12 -0.12)">
       <use xlink:href="#DejaVuSans-38"/>
       <use xlink:href="#DejaVuSans-35" transform="translate(63.623047 0)"/>
      </g>
     </g>
    </g>
    <g id="ytick_5">
     <g id="line2d_13">
      <path d="M 55.622188 126.144 
L 454.05462 126.144 
" clip-path="url(#pc61bd6f4ec)" style="fill: none; stroke: #b0b0b0; stroke-opacity: 0.25; stroke-width: 0.8; stroke-linecap: square"/>
     </g>
     <g id="line2d_14">
      <g>
       <use xlink:href="#m8fab2815cd" x="55.622188" y="126.144" style="stroke: #000000; stroke-width: 0.8"/>
      </g>
     </g>
     <g id="text_9">
      <!-- 90 -->
      <g transform="translate(33.352187 130.703063) scale(0.12 -0.12)">
       <defs>
        <path id="DejaVuSans-39" d="M 703 97 
L 703 672 
Q 941 559 1184 500 
Q 1428 441 1663 441 
Q 2288 441 2617 861 
Q 2947 1281 2994 2138 
Q 2813 1869 2534 1725 
Q 2256 1581 1919 1581 
Q 1219 1581 811 2004 
Q 403 2428 403 3163 
Q 403 3881 828 4315 
Q 1253 4750 1959 4750 
Q 2769 4750 3195 4129 
Q 3622 3509 3622 2328 
Q 3622 1225 3098 567 
Q 2575 -91 1691 -91 
Q 1453 -91 1209 -44 
Q 966 3 703 97 
z
M 1959 2075 
Q 2384 2075 2632 2365 
Q 2881 2656 2881 3163 
Q 2881 3666 2632 3958 
Q 2384 4250 1959 4250 
Q 1534 4250 1286 3958 
Q 1038 3666 1038 3163 
Q 1038 2656 1286 2365 
Q 1534 2075 1959 2075 
z
" transform="scale(0.015625)"/>
       </defs>
       <use xlink:href="#DejaVuSans-39"/>
       <use xlink:href="#DejaVuSans-30" transform="translate(63.623047 0)"/>
      </g>
     </g>
    </g>
    <g id="ytick_6">
     <g id="line2d_15">
      <path d="M 55.622188 93.888 
L 454.05462 93.888 
" clip-path="url(#pc61bd6f4ec)" style="fill: none; stroke: #b0b0b0; stroke-opacity: 0.25; stroke-width: 0.8; stroke-linecap: square"/>
     </g>
     <g id="line2d_16">
      <g>
       <use xlink:href="#m8fab2815cd" x="55.622188" y="93.888" style="stroke: #000000; stroke-width: 0.8"/>
      </g>
     </g>
     <g id="text_10">
      <!-- 95 -->
      <g transform="translate(33.352187 98.447063) scale(0.12 -0.12)">
       <use xlink:href="#DejaVuSans-39"/>
       <use xlink:href="#DejaVuSans-35" transform="translate(63.623047 0)"/>
      </g>
     </g>
    </g>
    <g id="ytick_7">
     <g id="line2d_17">
      <path d="M 55.622188 61.632 
L 454.05462 61.632 
" clip-path="url(#pc61bd6f4ec)" style="fill: none; stroke: #b0b0b0; stroke-opacity: 0.25; stroke-width: 0.8; stroke-linecap: square"/>
     </g>
     <g id="line2d_18">
      <g>
       <use xlink:href="#m8fab2815cd" x="55.622188" y="61.632" style="stroke: #000000; stroke-width: 0.8"/>
      </g>
     </g>
     <g id="text_11">
      <!-- 100 -->
      <g transform="translate(25.717188 66.191063) scale(0.12 -0.12)">
       <defs>
        <path id="DejaVuSans-31" d="M 794 531 
L 1825 531 
L 1825 4091 
L 703 3866 
L 703 4441 
L 1819 4666 
L 2450 4666 
L 2450 531 
L 3481 531 
L 3481 0 
L 794 0 
L 794 531 
z
" transform="scale(0.015625)"/>
       </defs>
       <use xlink:href="#DejaVuSans-31"/>
       <use xlink:href="#DejaVuSans-30" transform="translate(63.623047 0)"/>
       <use xlink:href="#DejaVuSans-30" transform="translate(127.246094 0)"/>
      </g>
     </g>
    </g>
    <g id="text_12">
     <!-- Accuracy (%) -->
     <g transform="translate(18.597656 208.004297) rotate(-90) scale(0.15 -0.15)">
      <defs>
       <path id="DejaVuSans-41" d="M 2188 4044 
L 1331 1722 
L 3047 1722 
L 2188 4044 
z
M 1831 4666 
L 2547 4666 
L 4325 0 
L 3669 0 
L 3244 1197 
L 1141 1197 
L 716 0 
L 50 0 
L 1831 4666 
z
" transform="scale(0.015625)"/>
       <path id="DejaVuSans-72" d="M 2631 2963 
Q 2534 3019 2420 3045 
Q 2306 3072 2169 3072 
Q 1681 3072 1420 2755 
Q 1159 2438 1159 1844 
L 1159 0 
L 581 0 
L 581 3500 
L 1159 3500 
L 1159 2956 
Q 1341 3275 1631 3429 
Q 1922 3584 2338 3584 
Q 2397 3584 2469 3576 
Q 2541 3569 2628 3553 
L 2631 2963 
z
" transform="scale(0.015625)"/>
       <path id="DejaVuSans-79" d="M 2059 -325 
Q 1816 -950 1584 -1140 
Q 1353 -1331 966 -1331 
L 506 -1331 
L 506 -850 
L 844 -850 
Q 1081 -850 1212 -737 
Q 1344 -625 1503 -206 
L 1606 56 
L 191 3500 
L 800 3500 
L 1894 763 
L 2988 3500 
L 3597 3500 
L 2059 -325 
z
" transform="scale(0.015625)"/>
       <path id="DejaVuSans-28" d="M 1984 4856 
Q 1566 4138 1362 3434 
Q 1159 2731 1159 2009 
Q 1159 1288 1364 580 
Q 1569 -128 1984 -844 
L 1484 -844 
Q 1016 -109 783 600 
Q 550 1309 550 2009 
Q 550 2706 781 3412 
Q 1013 4119 1484 4856 
L 1984 4856 
z
" transform="scale(0.015625)"/>
       <path id="DejaVuSans-25" d="M 4653 2053 
Q 4381 2053 4226 1822 
Q 4072 1591 4072 1178 
Q 4072 772 4226 539 
Q 4381 306 4653 306 
Q 4919 306 5073 539 
Q 5228 772 5228 1178 
Q 5228 1588 5073 1820 
Q 4919 2053 4653 2053 
z
M 4653 2450 
Q 5147 2450 5437 2106 
Q 5728 1763 5728 1178 
Q 5728 594 5436 251 
Q 5144 -91 4653 -91 
Q 4153 -91 3862 251 
Q 3572 594 3572 1178 
Q 3572 1766 3864 2108 
Q 4156 2450 4653 2450 
z
M 1428 4353 
Q 1159 4353 1004 4120 
Q 850 3888 850 3481 
Q 850 3069 1003 2837 
Q 1156 2606 1428 2606 
Q 1700 2606 1854 2837 
Q 2009 3069 2009 3481 
Q 2009 3884 1853 4118 
Q 1697 4353 1428 4353 
z
M 4250 4750 
L 4750 4750 
L 1831 -91 
L 1331 -91 
L 4250 4750 
z
M 1428 4750 
Q 1922 4750 2215 4408 
Q 2509 4066 2509 3481 
Q 2509 2891 2217 2550 
Q 1925 2209 1428 2209 
Q 931 2209 642 2551 
Q 353 2894 353 3481 
Q 353 4063 643 4406 
Q 934 4750 1428 4750 
z
" transform="scale(0.015625)"/>
       <path id="DejaVuSans-29" d="M 513 4856 
L 1013 4856 
Q 1481 4119 1714 3412 
Q 1947 2706 1947 2009 
Q 1947 1309 1714 600 
Q 1481 -109 1013 -844 
L 513 -844 
Q 928 -128 1133 580 
Q 1338 1288 1338 2009 
Q 1338 2731 1133 3434 
Q 928 4138 513 4856 
z
" transform="scale(0.015625)"/>
      </defs>
      <use xlink:href="#DejaVuSans-41"/>
      <use xlink:href="#DejaVuSans-63" transform="translate(66.658203 0)"/>
      <use xlink:href="#DejaVuSans-63" transform="translate(121.638672 0)"/>
      <use xlink:href="#DejaVuSans-75" transform="translate(176.619141 0)"/>
      <use xlink:href="#DejaVuSans-72" transform="translate(239.998047 0)"/>
      <use xlink:href="#DejaVuSans-61" transform="translate(281.111328 0)"/>
      <use xlink:href="#DejaVuSans-63" transform="translate(342.390625 0)"/>
      <use xlink:href="#DejaVuSans-79" transform="translate(397.371094 0)"/>
      <use xlink:href="#DejaVuSans-20" transform="translate(456.550781 0)"/>
      <use xlink:href="#DejaVuSans-28" transform="translate(488.337891 0)"/>
      <use xlink:href="#DejaVuSans-25" transform="translate(527.351562 0)"/>
      <use xlink:href="#DejaVuSans-29" transform="translate(622.371094 0)"/>
     </g>
    </g>
   </g>
   <g id="LineCollection_1">
    <path d="M 91.259106 137.980395 
L 91.259106 80.237212 
" clip-path="url(#pc61bd6f4ec)" style="fill: none; stroke: #000000; stroke-width: 1.5"/>
    <path d="M 188.627736 130.336066 
L 188.627736 79.011142 
" clip-path="url(#pc61bd6f4ec)" style="fill: none; stroke: #000000; stroke-width: 1.5"/>
    <path d="M 285.996365 165.335772 
L 285.996365 85.339434 
" clip-path="url(#pc61bd6f4ec)" style="fill: none; stroke: #000000; stroke-width: 1.5"/>
    <path d="M 383.364995 168.876323 
L 383.364995 83.210086 
" clip-path="url(#pc61bd6f4ec)" style="fill: none; stroke: #000000; stroke-width: 1.5"/>
   </g>
   <g id="line2d_19">
    <defs>
     <path id="md3247b13cc" d="M 3 0 
L -3 -0 
" style="stroke: #000000"/>
    </defs>
    <g clip-path="url(#pc61bd6f4ec)">
     <use xlink:href="#md3247b13cc" x="91.259106" y="137.980395" style="fill: #1f77b4; stroke: #000000"/>
     <use xlink:href="#md3247b13cc" x="188.627736" y="130.336066" style="fill: #1f77b4; stroke: #000000"/>
     <use xlink:href="#md3247b13cc" x="285.996365" y="165.335772" style="fill: #1f77b4; stroke: #000000"/>
     <use xlink:href="#md3247b13cc" x="383.364995" y="168.876323" style="fill: #1f77b4; stroke: #000000"/>
    </g>
   </g>
   <g id="line2d_20">
    <g clip-path="url(#pc61bd6f4ec)">
     <use xlink:href="#md3247b13cc" x="91.259106" y="80.237212" style="fill: #1f77b4; stroke: #000000"/>
     <use xlink:href="#md3247b13cc" x="188.627736" y="79.011142" style="fill: #1f77b4; stroke: #000000"/>
     <use xlink:href="#md3247b13cc" x="285.996365" y="85.339434" style="fill: #1f77b4; stroke: #000000"/>
     <use xlink:href="#md3247b13cc" x="383.364995" y="83.210086" style="fill: #1f77b4; stroke: #000000"/>
    </g>
   </g>
   <g id="LineCollection_2">
    <path d="M 126.311813 139.056159 
L 126.311813 82.790249 
" clip-path="url(#pc61bd6f4ec)" style="fill: none; stroke: #000000; stroke-width: 1.5"/>
    <path d="M 223.680442 136.850957 
L 223.680442 79.955449 
" clip-path="url(#pc61bd6f4ec)" style="fill: none; stroke: #000000; stroke-width: 1.5"/>
    <path d="M 321.049072 161.208963 
L 321.049072 88.65984 
" clip-path="url(#pc61bd6f4ec)" style="fill: none; stroke: #000000; stroke-width: 1.5"/>
    <path d="M 418.417701 166.77747 
L 418.417701 90.550536 
" clip-path="url(#pc61bd6f4ec)" style="fill: none; stroke: #000000; stroke-width: 1.5"/>
   </g>
   <g id="line2d_21">
    <g clip-path="url(#pc61bd6f4ec)">
     <use xlink:href="#md3247b13cc" x="126.311813" y="139.056159" style="fill: #1f77b4; stroke: #000000"/>
     <use xlink:href="#md3247b13cc" x="223.680442" y="136.850957" style="fill: #1f77b4; stroke: #000000"/>
     <use xlink:href="#md3247b13cc" x="321.049072" y="161.208963" style="fill: #1f77b4; stroke: #000000"/>
     <use xlink:href="#md3247b13cc" x="418.417701" y="166.77747" style="fill: #1f77b4; stroke: #000000"/>
    </g>
   </g>
   <g id="line2d_22">
    <g clip-path="url(#pc61bd6f4ec)">
     <use xlink:href="#md3247b13cc" x="126.311813" y="82.790249" style="fill: #1f77b4; stroke: #000000"/>
     <use xlink:href="#md3247b13cc" x="223.680442" y="79.955449" style="fill: #1f77b4; stroke: #000000"/>
     <use xlink:href="#md3247b13cc" x="321.049072" y="88.65984" style="fill: #1f77b4; stroke: #000000"/>
     <use xlink:href="#md3247b13cc" x="418.417701" y="90.550536" style="fill: #1f77b4; stroke: #000000"/>
    </g>
   </g>
   <g id="patch_11">
    <path d="M 55.622188 255.168 
L 55.622188 61.632 
" style="fill: none; stroke: #000000; stroke-width: 0.8; stroke-linejoin: miter; stroke-linecap: square"/>
   </g>
   <g id="patch_12">
    <path d="M 454.05462 255.168 
L 454.05462 61.632 
" style="fill: none; stroke: #000000; stroke-width: 0.8; stroke-linejoin: miter; stroke-linecap: square"/>
   </g>
   <g id="patch_13">
    <path d="M 55.622188 255.168 
L 454.05462 255.168 
" style="fill: none; stroke: #000000; stroke-width: 0.8; stroke-linejoin: miter; stroke-linecap: square"/>
   </g>
   <g id="patch_14">
    <path d="M 55.622188 61.632 
L 454.05462 61.632 
" style="fill: none; stroke: #000000; stroke-width: 0.8; stroke-linejoin: miter; stroke-linecap: square"/>
   </g>
   <g id="text_13">
    <!-- (a) Module Ablation -->
    <g transform="translate(176.517154 43.632) scale(0.16 -0.16)">
     <defs>
      <path id="DejaVuSans-4d" d="M 628 4666 
L 1569 4666 
L 2759 1491 
L 3956 4666 
L 4897 4666 
L 4897 0 
L 4281 0 
L 4281 4097 
L 3078 897 
L 2444 897 
L 1241 4097 
L 1241 0 
L 628 0 
L 628 4666 
z
" transform="scale(0.015625)"/>
      <path id="DejaVuSans-64" d="M 2906 2969 
L 2906 4863 
L 3481 4863 
L 3481 0 
L 2906 0 
L 2906 525 
Q 2725 213 2448 61 
Q 2172 -91 1784 -91 
Q 1150 -91 751 415 
Q 353 922 353 1747 
Q 353 2572 751 3078 
Q 1150 3584 1784 3584 
Q 2172 3584 2448 3432 
Q 2725 3281 2906 2969 
z
M 947 1747 
Q 947 1113 1208 752 
Q 1469 391 1925 391 
Q 2381 391 2643 752 
Q 2906 1113 2906 1747 
Q 2906 2381 2643 2742 
Q 2381 3103 1925 3103 
Q 1469 3103 1208 2742 
Q 947 2381 947 1747 
z
" transform="scale(0.015625)"/>
      <path id="DejaVuSans-69" d="M 603 3500 
L 1178 3500 
L 1178 0 
L 603 0 
L 603 3500 
z
M 603 4863 
L 1178 4863 
L 1178 4134 
L 603 4134 
L 603 4863 
z
" transform="scale(0.015625)"/>
     </defs>
     <use xlink:href="#DejaVuSans-28"/>
     <use xlink:href="#DejaVuSans-61" transform="translate(39.013672 0)"/>
     <use xlink:href="#DejaVuSans-29" transform="translate(100.292969 0)"/>
     <use xlink:href="#DejaVuSans-20" transform="translate(139.306641 0)"/>
     <use xlink:href="#DejaVuSans-4d" transform="translate(171.09375 0)"/>
     <use xlink:href="#DejaVuSans-6f" transform="translate(257.373047 0)"/>
     <use xlink:href="#DejaVuSans-64" transform="translate(318.554688 0)"/>
     <use xlink:href="#DejaVuSans-75" transform="translate(382.03125 0)"/>
     <use xlink:href="#DejaVuSans-6c" transform="translate(445.410156 0)"/>
     <use xlink:href="#DejaVuSans-65" transform="translate(473.193359 0)"/>
     <use xlink:href="#DejaVuSans-20" transform="translate(534.716797 0)"/>
     <use xlink:href="#DejaVuSans-41" transform="translate(566.503906 0)"/>
     <use xlink:href="#DejaVuSans-62" transform="translate(634.912109 0)"/>
     <use xlink:href="#DejaVuSans-6c" transform="translate(698.388672 0)"/>
     <use xlink:href="#DejaVuSans-61" transform="translate(726.171875 0)"/>
     <use xlink:href="#DejaVuSans-74" transform="translate(787.451172 0)"/>
     <use xlink:href="#DejaVuSans-69" transform="translate(826.660156 0)"/>
     <use xlink:href="#DejaVuSans-6f" transform="translate(854.443359 0)"/>
     <use xlink:href="#DejaVuSans-6e" transform="translate(915.625 0)"/>
    </g>
   </g>
   <g id="legend_1">
    <g id="patch_15">
     <path d="M 274.032221 76.325641 
L 296.032221 76.325641 
L 296.032221 68.625641 
L 274.032221 68.625641 
z
" style="fill: #4c78a8"/>
    </g>
    <g id="text_14">
     <!-- Valence -->
     <g transform="translate(304.832221 76.325641) scale(0.11 -0.11)">
      <defs>
       <path id="DejaVuSans-56" d="M 1831 0 
L 50 4666 
L 709 4666 
L 2188 738 
L 3669 4666 
L 4325 4666 
L 2547 0 
L 1831 0 
z
" transform="scale(0.015625)"/>
      </defs>
      <use xlink:href="#DejaVuSans-56"/>
      <use xlink:href="#DejaVuSans-61" transform="translate(60.658203 0)"/>
      <use xlink:href="#DejaVuSans-6c" transform="translate(121.9375 0)"/>
      <use xlink:href="#DejaVuSans-65" transform="translate(149.720703 0)"/>
      <use xlink:href="#DejaVuSans-6e" transform="translate(211.244141 0)"/>
      <use xlink:href="#DejaVuSans-63" transform="translate(274.623047 0)"/>
      <use xlink:href="#DejaVuSans-65" transform="translate(329.603516 0)"/>
     </g>
    </g>
    <g id="patch_16">
     <path d="M 369.85769 76.325641 
L 391.85769 76.325641 
L 391.85769 68.625641 
L 369.85769 68.625641 
z
" style="fill: #f58518"/>
    </g>
    <g id="text_15">
     <!-- Arousal -->
     <g transform="translate(400.65769 76.325641) scale(0.11 -0.11)">
      <use xlink:href="#DejaVuSans-41"/>
      <use xlink:href="#DejaVuSans-72" transform="translate(68.408203 0)"/>
      <use xlink:href="#DejaVuSans-6f" transform="translate(107.271484 0)"/>
      <use xlink:href="#DejaVuSans-75" transform="translate(168.453125 0)"/>
      <use xlink:href="#DejaVuSans-73" transform="translate(231.832031 0)"/>
      <use xlink:href="#DejaVuSans-61" transform="translate(283.931641 0)"/>
      <use xlink:href="#DejaVuSans-6c" transform="translate(345.210938 0)"/>
     </g>
    </g>
   </g>
  </g>
  <g id="axes_2">
   <g id="patch_17">
    <path d="M 541.709755 255.168 
L 940.142187 255.168 
L 940.142187 61.632 
L 541.709755 61.632 
z
" style="fill: #ffffff"/>
   </g>
   <g id="patch_18">
    <path d="M 559.82032 255.168 
L 635.631988 255.168 
L 635.631988 84.412801 
L 559.82032 84.412801 
z
" clip-path="url(#p55febcb6b9)" style="fill: #4c78a8"/>
   </g>
   <g id="patch_19">
    <path d="M 770.408287 255.168 
L 846.219954 255.168 
L 846.219954 84.931201 
L 770.408287 84.931201 
z
" clip-path="url(#p55febcb6b9)" style="fill: #4c78a8"/>
   </g>
   <g id="patch_20">
    <path d="M 635.631988 255.168 
L 711.443656 255.168 
L 711.443656 150.1632 
L 635.631988 150.1632 
z
" clip-path="url(#p55febcb6b9)" style="fill: #9e9e9e"/>
   </g>
   <g id="patch_21">
    <path d="M 846.219954 255.168 
L 922.031622 255.168 
L 922.031622 155.059199 
L 846.219954 155.059199 
z
" clip-path="url(#p55febcb6b9)" style="fill: #9e9e9e"/>
   </g>
   <g id="matplotlib.axis_3">
    <g id="xtick_5">
     <g id="line2d_23">
      <g>
       <use xlink:href="#me927984f56" x="635.631988" y="255.168" style="stroke: #000000; stroke-width: 0.8"/>
      </g>
     </g>
     <g id="text_16">
      <!-- Valence -->
      <g transform="translate(612.163551 271.286125) scale(0.12 -0.12)">
       <use xlink:href="#DejaVuSans-56"/>
       <use xlink:href="#DejaVuSans-61" transform="translate(60.658203 0)"/>
       <use xlink:href="#DejaVuSans-6c" transform="translate(121.9375 0)"/>
       <use xlink:href="#DejaVuSans-65" transform="translate(149.720703 0)"/>
       <use xlink:href="#DejaVuSans-6e" transform="translate(211.244141 0)"/>
       <use xlink:href="#DejaVuSans-63" transform="translate(274.623047 0)"/>
       <use xlink:href="#DejaVuSans-65" transform="translate(329.603516 0)"/>
      </g>
     </g>
    </g>
    <g id="xtick_6">
     <g id="line2d_24">
      <g>
       <use xlink:href="#me927984f56" x="846.219954" y="255.168" style="stroke: #000000; stroke-width: 0.8"/>
      </g>
     </g>
     <g id="text_17">
      <!-- Arousal -->
      <g transform="translate(823.840892 271.286125) scale(0.12 -0.12)">
       <use xlink:href="#DejaVuSans-41"/>
       <use xlink:href="#DejaVuSans-72" transform="translate(68.408203 0)"/>
       <use xlink:href="#DejaVuSans-6f" transform="translate(107.271484 0)"/>
       <use xlink:href="#DejaVuSans-75" transform="translate(168.453125 0)"/>
       <use xlink:href="#DejaVuSans-73" transform="translate(231.832031 0)"/>
       <use xlink:href="#DejaVuSans-61" transform="translate(283.931641 0)"/>
       <use xlink:href="#DejaVuSans-6c" transform="translate(345.210938 0)"/>
      </g>
     </g>
    </g>
   </g>
   <g id="matplotlib.axis_4">
    <g id="ytick_8">
     <g id="line2d_25">
      <path d="M 541.709755 255.168 
L 940.142187 255.168 
" clip-path="url(#p55febcb6b9)" style="fill: none; stroke: #b0b0b0; stroke-opacity: 0.25; stroke-width: 0.8; stroke-linecap: square"/>
     </g>
     <g id="line2d_26">
      <g>
       <use xlink:href="#m8fab2815cd" x="541.709755" y="255.168" style="stroke: #000000; stroke-width: 0.8"/>
      </g>
     </g>
     <g id="text_18">
      <!-- 0 -->
      <g transform="translate(527.074755 259.727063) scale(0.12 -0.12)">
       <use xlink:href="#DejaVuSans-30"/>
      </g>
     </g>
    </g>
    <g id="ytick_9">
     <g id="line2d_27">
      <path d="M 541.709755 218.304 
L 940.142187 218.304 
" clip-path="url(#p55febcb6b9)" style="fill: none; stroke: #b0b0b0; stroke-opacity: 0.25; stroke-width: 0.8; stroke-linecap: square"/>
     </g>
     <g id="line2d_28">
      <g>
       <use xlink:href="#m8fab2815cd" x="541.709755" y="218.304" style="stroke: #000000; stroke-width: 0.8"/>
      </g>
     </g>
     <g id="text_19">
      <!-- 20 -->
      <g transform="translate(519.439755 222.863063) scale(0.12 -0.12)">
       <defs>
        <path id="DejaVuSans-32" d="M 1228 531 
L 3431 531 
L 3431 0 
L 469 0 
L 469 531 
Q 828 903 1448 1529 
Q 2069 2156 2228 2338 
Q 2531 2678 2651 2914 
Q 2772 3150 2772 3378 
Q 2772 3750 2511 3984 
Q 2250 4219 1831 4219 
Q 1534 4219 1204 4116 
Q 875 4013 500 3803 
L 500 4441 
Q 881 4594 1212 4672 
Q 1544 4750 1819 4750 
Q 2544 4750 2975 4387 
Q 3406 4025 3406 3419 
Q 3406 3131 3298 2873 
Q 3191 2616 2906 2266 
Q 2828 2175 2409 1742 
Q 1991 1309 1228 531 
z
" transform="scale(0.015625)"/>
       </defs>
       <use xlink:href="#DejaVuSans-32"/>
       <use xlink:href="#DejaVuSans-30" transform="translate(63.623047 0)"/>
      </g>
     </g>
    </g>
    <g id="ytick_10">
     <g id="line2d_29">
      <path d="M 541.709755 181.44 
L 940.142187 181.44 
" clip-path="url(#p55febcb6b9)" style="fill: none; stroke: #b0b0b0; stroke-opacity: 0.25; stroke-width: 0.8; stroke-linecap: square"/>
     </g>
     <g id="line2d_30">
      <g>
       <use xlink:href="#m8fab2815cd" x="541.709755" y="181.44" style="stroke: #000000; stroke-width: 0.8"/>
      </g>
     </g>
     <g id="text_20">
      <!-- 40 -->
      <g transform="translate(519.439755 185.999063) scale(0.12 -0.12)">
       <defs>
        <path id="DejaVuSans-34" d="M 2419 4116 
L 825 1625 
L 2419 1625 
L 2419 4116 
z
M 2253 4666 
L 3047 4666 
L 3047 1625 
L 3713 1625 
L 3713 1100 
L 3047 1100 
L 3047 0 
L 2419 0 
L 2419 1100 
L 313 1100 
L 313 1709 
L 2253 4666 
z
" transform="scale(0.015625)"/>
       </defs>
       <use xlink:href="#DejaVuSans-34"/>
       <use xlink:href="#DejaVuSans-30" transform="translate(63.623047 0)"/>
      </g>
     </g>
    </g>
    <g id="ytick_11">
     <g id="line2d_31">
      <path d="M 541.709755 144.576 
L 940.142187 144.576 
" clip-path="url(#p55febcb6b9)" style="fill: none; stroke: #b0b0b0; stroke-opacity: 0.25; stroke-width: 0.8; stroke-linecap: square"/>
     </g>
     <g id="line2d_32">
      <g>
       <use xlink:href="#m8fab2815cd" x="541.709755" y="144.576" style="stroke: #000000; stroke-width: 0.8"/>
      </g>
     </g>
     <g id="text_21">
      <!-- 60 -->
      <g transform="translate(519.439755 149.135063) scale(0.12 -0.12)">
       <defs>
        <path id="DejaVuSans-36" d="M 2113 2584 
Q 1688 2584 1439 2293 
Q 1191 2003 1191 1497 
Q 1191 994 1439 701 
Q 1688 409 2113 409 
Q 2538 409 2786 701 
Q 3034 994 3034 1497 
Q 3034 2003 2786 2293 
Q 2538 2584 2113 2584 
z
M 3366 4563 
L 3366 3988 
Q 3128 4100 2886 4159 
Q 2644 4219 2406 4219 
Q 1781 4219 1451 3797 
Q 1122 3375 1075 2522 
Q 1259 2794 1537 2939 
Q 1816 3084 2150 3084 
Q 2853 3084 3261 2657 
Q 3669 2231 3669 1497 
Q 3669 778 3244 343 
Q 2819 -91 2113 -91 
Q 1303 -91 875 529 
Q 447 1150 447 2328 
Q 447 3434 972 4092 
Q 1497 4750 2381 4750 
Q 2619 4750 2861 4703 
Q 3103 4656 3366 4563 
z
" transform="scale(0.015625)"/>
       </defs>
       <use xlink:href="#DejaVuSans-36"/>
       <use xlink:href="#DejaVuSans-30" transform="translate(63.623047 0)"/>
      </g>
     </g>
    </g>
    <g id="ytick_12">
     <g id="line2d_33">
      <path d="M 541.709755 107.712 
L 940.142187 107.712 
" clip-path="url(#p55febcb6b9)" style="fill: none; stroke: #b0b0b0; stroke-opacity: 0.25; stroke-width: 0.8; stroke-linecap: square"/>
     </g>
     <g id="line2d_34">
      <g>
       <use xlink:href="#m8fab2815cd" x="541.709755" y="107.712" style="stroke: #000000; stroke-width: 0.8"/>
      </g>
     </g>
     <g id="text_22">
      <!-- 80 -->
      <g transform="translate(519.439755 112.271063) scale(0.12 -0.12)">
       <use xlink:href="#DejaVuSans-38"/>
       <use xlink:href="#DejaVuSans-30" transform="translate(63.623047 0)"/>
      </g>
     </g>
    </g>
    <g id="ytick_13">
     <g id="line2d_35">
      <path d="M 541.709755 70.848 
L 940.142187 70.848 
" clip-path="url(#p55febcb6b9)" style="fill: none; stroke: #b0b0b0; stroke-opacity: 0.25; stroke-width: 0.8; stroke-linecap: square"/>
     </g>
     <g id="line2d_36">
      <g>
       <use xlink:href="#m8fab2815cd" x="541.709755" y="70.848" style="stroke: #000000; stroke-width: 0.8"/>
      </g>
     </g>
     <g id="text_23">
      <!-- 100 -->
      <g transform="translate(511.804755 75.407063) scale(0.12 -0.12)">
       <use xlink:href="#DejaVuSans-31"/>
       <use xlink:href="#DejaVuSans-30" transform="translate(63.623047 0)"/>
       <use xlink:href="#DejaVuSans-30" transform="translate(127.246094 0)"/>
      </g>
     </g>
    </g>
    <g id="text_24">
     <!-- Accuracy (%) -->
     <g transform="translate(504.685224 208.004297) rotate(-90) scale(0.15 -0.15)">
      <use xlink:href="#DejaVuSans-41"/>
      <use xlink:href="#DejaVuSans-63" transform="translate(66.658203 0)"/>
      <use xlink:href="#DejaVuSans-63" transform="translate(121.638672 0)"/>
      <use xlink:href="#DejaVuSans-75" transform="translate(176.619141 0)"/>
      <use xlink:href="#DejaVuSans-72" transform="translate(239.998047 0)"/>
      <use xlink:href="#DejaVuSans-61" transform="translate(281.111328 0)"/>
      <use xlink:href="#DejaVuSans-63" transform="translate(342.390625 0)"/>
      <use xlink:href="#DejaVuSans-79" transform="translate(397.371094 0)"/>
      <use xlink:href="#DejaVuSans-20" transform="translate(456.550781 0)"/>
      <use xlink:href="#DejaVuSans-28" transform="translate(488.337891 0)"/>
      <use xlink:href="#DejaVuSans-25" transform="translate(527.351562 0)"/>
      <use xlink:href="#DejaVuSans-29" transform="translate(622.371094 0)"/>
     </g>
    </g>
   </g>
   <g id="LineCollection_3">
    <path d="M 597.726154 92.661827 
L 597.726154 76.163775 
" clip-path="url(#p55febcb6b9)" style="fill: none; stroke: #000000; stroke-width: 1.5"/>
    <path d="M 808.314121 92.969188 
L 808.314121 76.893214 
" clip-path="url(#p55febcb6b9)" style="fill: none; stroke: #000000; stroke-width: 1.5"/>
   </g>
   <g id="line2d_37">
    <g clip-path="url(#p55febcb6b9)">
     <use xlink:href="#md3247b13cc" x="597.726154" y="92.661827" style="fill: #1f77b4; stroke: #000000"/>
     <use xlink:href="#md3247b13cc" x="808.314121" y="92.969188" style="fill: #1f77b4; stroke: #000000"/>
    </g>
   </g>
   <g id="line2d_38">
    <g clip-path="url(#p55febcb6b9)">
     <use xlink:href="#md3247b13cc" x="597.726154" y="76.163775" style="fill: #1f77b4; stroke: #000000"/>
     <use xlink:href="#md3247b13cc" x="808.314121" y="76.893214" style="fill: #1f77b4; stroke: #000000"/>
    </g>
   </g>
   <g id="LineCollection_4">
    <path d="M 673.537822 164.346725 
L 673.537822 135.979675 
" clip-path="url(#p55febcb6b9)" style="fill: none; stroke: #000000; stroke-width: 1.5"/>
    <path d="M 884.125788 172.753183 
L 884.125788 137.365216 
" clip-path="url(#p55febcb6b9)" style="fill: none; stroke: #000000; stroke-width: 1.5"/>
   </g>
   <g id="line2d_39">
    <g clip-path="url(#p55febcb6b9)">
     <use xlink:href="#md3247b13cc" x="673.537822" y="164.346725" style="fill: #1f77b4; stroke: #000000"/>
     <use xlink:href="#md3247b13cc" x="884.125788" y="172.753183" style="fill: #1f77b4; stroke: #000000"/>
    </g>
   </g>
   <g id="line2d_40">
    <g clip-path="url(#p55febcb6b9)">
     <use xlink:href="#md3247b13cc" x="673.537822" y="135.979675" style="fill: #1f77b4; stroke: #000000"/>
     <use xlink:href="#md3247b13cc" x="884.125788" y="137.365216" style="fill: #1f77b4; stroke: #000000"/>
    </g>
   </g>
   <g id="patch_22">
    <path d="M 541.709755 255.168 
L 541.709755 61.632 
" style="fill: none; stroke: #000000; stroke-width: 0.8; stroke-linejoin: miter; stroke-linecap: square"/>
   </g>
   <g id="patch_23">
    <path d="M 940.142187 255.168 
L 940.142187 61.632 
" style="fill: none; stroke: #000000; stroke-width: 0.8; stroke-linejoin: miter; stroke-linecap: square"/>
   </g>
   <g id="patch_24">
    <path d="M 541.709755 255.168 
L 940.142187 255.168 
" style="fill: none; stroke: #000000; stroke-width: 0.8; stroke-linejoin: miter; stroke-linecap: square"/>
   </g>
   <g id="patch_25">
    <path d="M 541.709755 61.632 
L 940.142187 61.632 
" style="fill: none; stroke: #000000; stroke-width: 0.8; stroke-linejoin: miter; stroke-linecap: square"/>
   </g>
   <g id="text_25">
    <!-- -35.7 pts -->
    <g transform="translate(608.914176 90.74805) scale(0.12 -0.12)">
     <defs>
      <path id="DejaVuSans-2d" d="M 313 2009 
L 1997 2009 
L 1997 1497 
L 313 1497 
L 313 2009 
z
" transform="scale(0.015625)"/>
      <path id="DejaVuSans-33" d="M 2597 2516 
Q 3050 2419 3304 2112 
Q 3559 1806 3559 1356 
Q 3559 666 3084 287 
Q 2609 -91 1734 -91 
Q 1441 -91 1130 -33 
Q 819 25 488 141 
L 488 750 
Q 750 597 1062 519 
Q 1375 441 1716 441 
Q 2309 441 2620 675 
Q 2931 909 2931 1356 
Q 2931 1769 2642 2001 
Q 2353 2234 1838 2234 
L 1294 2234 
L 1294 2753 
L 1863 2753 
Q 2328 2753 2575 2939 
Q 2822 3125 2822 3475 
Q 2822 3834 2567 4026 
Q 2313 4219 1838 4219 
Q 1578 4219 1281 4162 
Q 984 4106 628 3988 
L 628 4550 
Q 988 4650 1302 4700 
Q 1616 4750 1894 4750 
Q 2613 4750 3031 4423 
Q 3450 4097 3450 3541 
Q 3450 3153 3228 2886 
Q 3006 2619 2597 2516 
z
" transform="scale(0.015625)"/>
      <path id="DejaVuSans-2e" d="M 684 794 
L 1344 794 
L 1344 0 
L 684 0 
L 684 794 
z
" transform="scale(0.015625)"/>
      <path id="DejaVuSans-70" d="M 1159 525 
L 1159 -1331 
L 581 -1331 
L 581 3500 
L 1159 3500 
L 1159 2969 
Q 1341 3281 1617 3432 
Q 1894 3584 2278 3584 
Q 2916 3584 3314 3078 
Q 3713 2572 3713 1747 
Q 3713 922 3314 415 
Q 2916 -91 2278 -91 
Q 1894 -91 1617 61 
Q 1341 213 1159 525 
z
M 3116 1747 
Q 3116 2381 2855 2742 
Q 2594 3103 2138 3103 
Q 1681 3103 1420 2742 
Q 1159 2381 1159 1747 
Q 1159 1113 1420 752 
Q 1681 391 2138 391 
Q 2594 391 2855 752 
Q 3116 1113 3116 1747 
z
" transform="scale(0.015625)"/>
     </defs>
     <use xlink:href="#DejaVuSans-2d"/>
     <use xlink:href="#DejaVuSans-33" transform="translate(36.083984 0)"/>
     <use xlink:href="#DejaVuSans-35" transform="translate(99.707031 0)"/>
     <use xlink:href="#DejaVuSans-2e" transform="translate(163.330078 0)"/>
     <use xlink:href="#DejaVuSans-37" transform="translate(195.117188 0)"/>
     <use xlink:href="#DejaVuSans-20" transform="translate(258.740234 0)"/>
     <use xlink:href="#DejaVuSans-70" transform="translate(290.527344 0)"/>
     <use xlink:href="#DejaVuSans-74" transform="translate(354.003906 0)"/>
     <use xlink:href="#DejaVuSans-73" transform="translate(393.212891 0)"/>
    </g>
   </g>
   <g id="text_26">
    <!-- -38.0 pts -->
    <g transform="translate(819.502142 94.43445) scale(0.12 -0.12)">
     <use xlink:href="#DejaVuSans-2d"/>
     <use xlink:href="#DejaVuSans-33" transform="translate(36.083984 0)"/>
     <use xlink:href="#DejaVuSans-38" transform="translate(99.707031 0)"/>
     <use xlink:href="#DejaVuSans-2e" transform="translate(163.330078 0)"/>
     <use xlink:href="#DejaVuSans-30" transform="translate(195.117188 0)"/>
     <use xlink:href="#DejaVuSans-20" transform="translate(258.740234 0)"/>
     <use xlink:href="#DejaVuSans-70" transform="translate(290.527344 0)"/>
     <use xlink:href="#DejaVuSans-74" transform="translate(354.003906 0)"/>
     <use xlink:href="#DejaVuSans-73" transform="translate(393.212891 0)"/>
    </g>
   </g>
   <g id="text_27">
    <!-- (b) Split Protocol Robustness -->
    <g transform="translate(626.129721 43.632) scale(0.16 -0.16)">
     <defs>
      <path id="DejaVuSans-53" d="M 3425 4513 
L 3425 3897 
Q 3066 4069 2747 4153 
Q 2428 4238 2131 4238 
Q 1616 4238 1336 4038 
Q 1056 3838 1056 3469 
Q 1056 3159 1242 3001 
Q 1428 2844 1947 2747 
L 2328 2669 
Q 3034 2534 3370 2195 
Q 3706 1856 3706 1288 
Q 3706 609 3251 259 
Q 2797 -91 1919 -91 
Q 1588 -91 1214 -16 
Q 841 59 441 206 
L 441 856 
Q 825 641 1194 531 
Q 1563 422 1919 422 
Q 2459 422 2753 634 
Q 3047 847 3047 1241 
Q 3047 1584 2836 1778 
Q 2625 1972 2144 2069 
L 1759 2144 
Q 1053 2284 737 2584 
Q 422 2884 422 3419 
Q 422 4038 858 4394 
Q 1294 4750 2059 4750 
Q 2388 4750 2728 4690 
Q 3069 4631 3425 4513 
z
" transform="scale(0.015625)"/>
      <path id="DejaVuSans-50" d="M 1259 4147 
L 1259 2394 
L 2053 2394 
Q 2494 2394 2734 2622 
Q 2975 2850 2975 3272 
Q 2975 3691 2734 3919 
Q 2494 4147 2053 4147 
L 1259 4147 
z
M 628 4666 
L 2053 4666 
Q 2838 4666 3239 4311 
Q 3641 3956 3641 3272 
Q 3641 2581 3239 2228 
Q 2838 1875 2053 1875 
L 1259 1875 
L 1259 0 
L 628 0 
L 628 4666 
z
" transform="scale(0.015625)"/>
      <path id="DejaVuSans-52" d="M 2841 2188 
Q 3044 2119 3236 1894 
Q 3428 1669 3622 1275 
L 4263 0 
L 3584 0 
L 2988 1197 
Q 2756 1666 2539 1819 
Q 2322 1972 1947 1972 
L 1259 1972 
L 1259 0 
L 628 0 
L 628 4666 
L 2053 4666 
Q 2853 4666 3247 4331 
Q 3641 3997 3641 3322 
Q 3641 2881 3436 2590 
Q 3231 2300 2841 2188 
z
M 1259 4147 
L 1259 2491 
L 2053 2491 
Q 2509 2491 2742 2702 
Q 2975 2913 2975 3322 
Q 2975 3731 2742 3939 
Q 2509 4147 2053 4147 
L 1259 4147 
z
" transform="scale(0.015625)"/>
     </defs>
     <use xlink:href="#DejaVuSans-28"/>
     <use xlink:href="#DejaVuSans-62" transform="translate(39.013672 0)"/>
     <use xlink:href="#DejaVuSans-29" transform="translate(102.490234 0)"/>
     <use xlink:href="#DejaVuSans-20" transform="translate(141.503906 0)"/>
     <use xlink:href="#DejaVuSans-53" transform="translate(173.291016 0)"/>
     <use xlink:href="#DejaVuSans-70" transform="translate(236.767578 0)"/>
     <use xlink:href="#DejaVuSans-6c" transform="translate(300.244141 0)"/>
     <use xlink:href="#DejaVuSans-69" transform="translate(328.027344 0)"/>
     <use xlink:href="#DejaVuSans-74" transform="translate(355.810547 0)"/>
     <use xlink:href="#DejaVuSans-20" transform="translate(395.019531 0)"/>
     <use xlink:href="#DejaVuSans-50" transform="translate(426.806641 0)"/>
     <use xlink:href="#DejaVuSans-72" transform="translate(485.359375 0)"/>
     <use xlink:href="#DejaVuSans-6f" transform="translate(524.222656 0)"/>
     <use xlink:href="#DejaVuSans-74" transform="translate(585.404297 0)"/>
     <use xlink:href="#DejaVuSans-6f" transform="translate(624.613281 0)"/>
     <use xlink:href="#DejaVuSans-63" transform="translate(685.794922 0)"/>
     <use xlink:href="#DejaVuSans-6f" transform="translate(740.775391 0)"/>
     <use xlink:href="#DejaVuSans-6c" transform="translate(801.957031 0)"/>
     <use xlink:href="#DejaVuSans-20" transform="translate(829.740234 0)"/>
     <use xlink:href="#DejaVuSans-52" transform="translate(861.527344 0)"/>
     <use xlink:href="#DejaVuSans-6f" transform="translate(926.509766 0)"/>
     <use xlink:href="#DejaVuSans-62" transform="translate(987.691406 0)"/>
     <use xlink:href="#DejaVuSans-75" transform="translate(1051.167969 0)"/>
     <use xlink:href="#DejaVuSans-73" transform="translate(1114.546875 0)"/>
     <use xlink:href="#DejaVuSans-74" transform="translate(1166.646484 0)"/>
     <use xlink:href="#DejaVuSans-6e" transform="translate(1205.855469 0)"/>
     <use xlink:href="#DejaVuSans-65" transform="translate(1269.234375 0)"/>
     <use xlink:href="#DejaVuSans-73" transform="translate(1330.757812 0)"/>
     <use xlink:href="#DejaVuSans-73" transform="translate(1382.857422 0)"/>
    </g>
   </g>
   <g id="legend_2">
    <g id="patch_26">
     <path d="M 610.505503 76.325641 
L 632.505503 76.325641 
L 632.505503 68.625641 
L 610.505503 68.625641 
z
" style="fill: #4c78a8"/>
    </g>
    <g id="text_28">
     <!-- Sample-level split -->
     <g transform="translate(641.305503 76.325641) scale(0.11 -0.11)">
      <defs>
       <path id="DejaVuSans-6d" d="M 3328 2828 
Q 3544 3216 3844 3400 
Q 4144 3584 4550 3584 
Q 5097 3584 5394 3201 
Q 5691 2819 5691 2113 
L 5691 0 
L 5113 0 
L 5113 2094 
Q 5113 2597 4934 2840 
Q 4756 3084 4391 3084 
Q 3944 3084 3684 2787 
Q 3425 2491 3425 1978 
L 3425 0 
L 2847 0 
L 2847 2094 
Q 2847 2600 2669 2842 
Q 2491 3084 2119 3084 
Q 1678 3084 1418 2786 
Q 1159 2488 1159 1978 
L 1159 0 
L 581 0 
L 581 3500 
L 1159 3500 
L 1159 2956 
Q 1356 3278 1631 3431 
Q 1906 3584 2284 3584 
Q 2666 3584 2933 3390 
Q 3200 3197 3328 2828 
z
" transform="scale(0.015625)"/>
       <path id="DejaVuSans-76" d="M 191 3500 
L 800 3500 
L 1894 563 
L 2988 3500 
L 3597 3500 
L 2284 0 
L 1503 0 
L 191 3500 
z
" transform="scale(0.015625)"/>
      </defs>
      <use xlink:href="#DejaVuSans-53"/>
      <use xlink:href="#DejaVuSans-61" transform="translate(63.476562 0)"/>
      <use xlink:href="#DejaVuSans-6d" transform="translate(124.755859 0)"/>
      <use xlink:href="#DejaVuSans-70" transform="translate(222.167969 0)"/>
      <use xlink:href="#DejaVuSans-6c" transform="translate(285.644531 0)"/>
      <use xlink:href="#DejaVuSans-65" transform="translate(313.427734 0)"/>
      <use xlink:href="#DejaVuSans-2d" transform="translate(374.951172 0)"/>
      <use xlink:href="#DejaVuSans-6c" transform="translate(411.035156 0)"/>
      <use xlink:href="#DejaVuSans-65" transform="translate(438.818359 0)"/>
      <use xlink:href="#DejaVuSans-76" transform="translate(500.341797 0)"/>
      <use xlink:href="#DejaVuSans-65" transform="translate(559.521484 0)"/>
      <use xlink:href="#DejaVuSans-6c" transform="translate(621.044922 0)"/>
      <use xlink:href="#DejaVuSans-20" transform="translate(648.828125 0)"/>
      <use xlink:href="#DejaVuSans-73" transform="translate(680.615234 0)"/>
      <use xlink:href="#DejaVuSans-70" transform="translate(732.714844 0)"/>
      <use xlink:href="#DejaVuSans-6c" transform="translate(796.191406 0)"/>
      <use xlink:href="#DejaVuSans-69" transform="translate(823.974609 0)"/>
      <use xlink:href="#DejaVuSans-74" transform="translate(851.757812 0)"/>
     </g>
    </g>
    <g id="patch_27">
     <path d="M 761.313784 76.325641 
L 783.313784 76.325641 
L 783.313784 68.625641 
L 761.313784 68.625641 
z
" style="fill: #9e9e9e"/>
    </g>
    <g id="text_29">
     <!-- Trial-level split -->
     <g transform="translate(792.113784 76.325641) scale(0.11 -0.11)">
      <defs>
       <path id="DejaVuSans-54" d="M -19 4666 
L 3928 4666 
L 3928 4134 
L 2272 4134 
L 2272 0 
L 1638 0 
L 1638 4134 
L -19 4134 
L -19 4666 
z
" transform="scale(0.015625)"/>
      </defs>
      <use xlink:href="#DejaVuSans-54"/>
      <use xlink:href="#DejaVuSans-72" transform="translate(46.333984 0)"/>
      <use xlink:href="#DejaVuSans-69" transform="translate(87.447266 0)"/>
      <use xlink:href="#DejaVuSans-61" transform="translate(115.230469 0)"/>
      <use xlink:href="#DejaVuSans-6c" transform="translate(176.509766 0)"/>
      <use xlink:href="#DejaVuSans-2d" transform="translate(204.292969 0)"/>
      <use xlink:href="#DejaVuSans-6c" transform="translate(240.376953 0)"/>
      <use xlink:href="#DejaVuSans-65" transform="translate(268.160156 0)"/>
      <use xlink:href="#DejaVuSans-76" transform="translate(329.683594 0)"/>
      <use xlink:href="#DejaVuSans-65" transform="translate(388.863281 0)"/>
      <use xlink:href="#DejaVuSans-6c" transform="translate(450.386719 0)"/>
      <use xlink:href="#DejaVuSans-20" transform="translate(478.169922 0)"/>
      <use xlink:href="#DejaVuSans-73" transform="translate(509.957031 0)"/>
      <use xlink:href="#DejaVuSans-70" transform="translate(562.056641 0)"/>
      <use xlink:href="#DejaVuSans-6c" transform="translate(625.533203 0)"/>
      <use xlink:href="#DejaVuSans-69" transform="translate(653.316406 0)"/>
      <use xlink:href="#DejaVuSans-74" transform="translate(681.099609 0)"/>
     </g>
    </g>
   </g>
  </g>
  <g id="text_30">
   <!-- Control Experiments on ACRNN -->
   <g transform="translate(348.237188 19.3575) scale(0.16 -0.16)">
    <defs>
     <path id="DejaVuSans-43" d="M 4122 4306 
L 4122 3641 
Q 3803 3938 3442 4084 
Q 3081 4231 2675 4231 
Q 1875 4231 1450 3742 
Q 1025 3253 1025 2328 
Q 1025 1406 1450 917 
Q 1875 428 2675 428 
Q 3081 428 3442 575 
Q 3803 722 4122 1019 
L 4122 359 
Q 3791 134 3420 21 
Q 3050 -91 2638 -91 
Q 1578 -91 968 557 
Q 359 1206 359 2328 
Q 359 3453 968 4101 
Q 1578 4750 2638 4750 
Q 3056 4750 3426 4639 
Q 3797 4528 4122 4306 
z
" transform="scale(0.015625)"/>
     <path id="DejaVuSans-45" d="M 628 4666 
L 3578 4666 
L 3578 4134 
L 1259 4134 
L 1259 2753 
L 3481 2753 
L 3481 2222 
L 1259 2222 
L 1259 531 
L 3634 531 
L 3634 0 
L 628 0 
L 628 4666 
z
" transform="scale(0.015625)"/>
     <path id="DejaVuSans-78" d="M 3513 3500 
L 2247 1797 
L 3578 0 
L 2900 0 
L 1881 1375 
L 863 0 
L 184 0 
L 1544 1831 
L 300 3500 
L 978 3500 
L 1906 2253 
L 2834 3500 
L 3513 3500 
z
" transform="scale(0.015625)"/>
     <path id="DejaVuSans-4e" d="M 628 4666 
L 1478 4666 
L 3547 763 
L 3547 4666 
L 4159 4666 
L 4159 0 
L 3309 0 
L 1241 3903 
L 1241 0 
L 628 0 
L 628 4666 
z
" transform="scale(0.015625)"/>
    </defs>
    <use xlink:href="#DejaVuSans-43"/>
    <use xlink:href="#DejaVuSans-6f" transform="translate(69.824219 0)"/>
    <use xlink:href="#DejaVuSans-6e" transform="translate(131.005859 0)"/>
    <use xlink:href="#DejaVuSans-74" transform="translate(194.384766 0)"/>
    <use xlink:href="#DejaVuSans-72" transform="translate(233.59375 0)"/>
    <use xlink:href="#DejaVuSans-6f" transform="translate(272.457031 0)"/>
    <use xlink:href="#DejaVuSans-6c" transform="translate(333.638672 0)"/>
    <use xlink:href="#DejaVuSans-20" transform="translate(361.421875 0)"/>
    <use xlink:href="#DejaVuSans-45" transform="translate(393.208984 0)"/>
    <use xlink:href="#DejaVuSans-78" transform="translate(456.392578 0)"/>
    <use xlink:href="#DejaVuSans-70" transform="translate(515.572266 0)"/>
    <use xlink:href="#DejaVuSans-65" transform="translate(579.048828 0)"/>
    <use xlink:href="#DejaVuSans-72" transform="translate(640.572266 0)"/>
    <use xlink:href="#DejaVuSans-69" transform="translate(681.685547 0)"/>
    <use xlink:href="#DejaVuSans-6d" transform="translate(709.46875 0)"/>
    <use xlink:href="#DejaVuSans-65" transform="translate(806.880859 0)"/>
    <use xlink:href="#DejaVuSans-6e" transform="translate(868.404297 0)"/>
    <use xlink:href="#DejaVuSans-74" transform="translate(931.783203 0)"/>
    <use xlink:href="#DejaVuSans-73" transform="translate(970.992188 0)"/>
    <use xlink:href="#DejaVuSans-20" transform="translate(1023.091797 0)"/>
    <use xlink:href="#DejaVuSans-6f" transform="translate(1054.878906 0)"/>
    <use xlink:href="#DejaVuSans-6e" transform="translate(1116.060547 0)"/>
    <use xlink:href="#DejaVuSans-20" transform="translate(1179.439453 0)"/>
    <use xlink:href="#DejaVuSans-41" transform="translate(1211.226562 0)"/>
    <use xlink:href="#DejaVuSans-43" transform="translate(1277.884766 0)"/>
    <use xlink:href="#DejaVuSans-52" transform="translate(1347.708984 0)"/>
    <use xlink:href="#DejaVuSans-4e" transform="translate(1417.191406 0)"/>
    <use xlink:href="#DejaVuSans-4e" transform="translate(1491.996094 0)"/>
   </g>
  </g>
 </g>
 <defs>
  <clipPath id="pc61bd6f4ec">
   <rect x="55.622188" y="61.632" width="398.432432" height="193.536"/>
  </clipPath>
  <clipPath id="p55febcb6b9">
   <rect x="541.709755" y="61.632" width="398.432432" height="193.536"/>
  </clipPath>
 </defs>
</svg>
